<svg width="24" height="24" viewBox="0 0 24 24" fill="none" xmlns="http://www.w3.org/2000/svg">
<path d="M6.79492 0.733398H16.3359C17.891 0.733481 19.435 1.24642 20.7305 2.39941C21.7577 3.57015 22.3965 5.1207 22.3965 6.79492V16.3359C22.3964 17.8993 21.8779 19.4513 20.7119 20.751C19.5781 21.8733 18.0535 22.3964 16.3359 22.3965H6.79492C5.23928 22.3965 3.69421 21.8833 2.39844 20.7295C1.37186 19.559 0.733494 18.0095 0.733398 16.3359V6.79492C0.733398 6.45001 0.760604 6.11012 0.8125 5.77832C1.19783 3.3147 3.31656 1.24796 5.80762 0.819336C6.13695 0.762683 6.46731 0.733398 6.79492 0.733398ZM8.03906 1.29102C7.37726 1.3094 6.71125 1.34655 6.11133 1.41797C5.52236 1.48809 4.94944 1.59581 4.49805 1.77637L4.49023 1.78027L4.48145 1.7832C3.32156 2.28032 2.28259 3.28224 1.91016 4.52637C1.73624 4.9733 1.63117 5.53453 1.5625 6.11133C1.49108 6.71125 1.45393 7.37726 1.43555 8.03906C1.39909 9.35172 1.43457 10.7282 1.43457 11.5654C1.43456 12.4027 1.3991 13.7784 1.43555 15.0908C1.45393 15.7526 1.49108 16.4186 1.5625 17.0186C1.63121 17.5957 1.73606 18.1574 1.91016 18.6045C2.27683 19.8279 3.30638 20.8557 4.53027 21.2207C4.97883 21.3945 5.54925 21.5001 6.13379 21.5684C6.7443 21.6396 7.42336 21.676 8.09375 21.6943C9.42416 21.7308 10.8006 21.6953 11.5654 21.6953C12.3303 21.6953 13.706 21.7308 15.0361 21.6943C15.7067 21.676 16.3865 21.6396 16.9971 21.5684C17.5954 21.4985 18.1787 21.3902 18.6318 21.209L18.6406 21.2061L18.6484 21.2021C19.8335 20.6943 20.6943 19.8335 21.2021 18.6484L21.21 18.6299L21.2168 18.6104C21.552 17.6885 21.6585 16.273 21.6943 14.9824C21.7308 13.6702 21.6953 12.3299 21.6953 11.5654C21.6953 10.8006 21.7308 9.42416 21.6943 8.09375C21.676 7.42336 21.6396 6.7443 21.5684 6.13379C21.5 5.548 21.3942 4.97633 21.2197 4.52734C20.8352 3.23978 19.8326 2.4618 18.7402 2.00488C17.6423 1.54562 16.3678 1.36895 15.2676 1.31641C13.8937 1.25083 12.44 1.29003 11.5654 1.29004C10.7282 1.29004 9.35172 1.25456 8.03906 1.29102ZM11.5654 6.37109C14.4851 6.37132 16.7588 8.64574 16.7588 11.5654C16.7586 14.4849 14.4849 16.7586 11.5654 16.7588C8.64574 16.7588 6.37132 14.4851 6.37109 11.5654C6.37109 8.6456 8.6456 6.37109 11.5654 6.37109ZM11.5654 6.92871C8.99188 6.92871 6.92871 8.99188 6.92871 11.5654C6.92894 14.1388 8.99203 16.2021 11.5654 16.2021C14.1386 16.2019 16.2019 14.1386 16.2021 11.5654C16.2021 8.99203 14.1388 6.92894 11.5654 6.92871ZM17.6367 4.63672C18.052 4.63677 18.3485 4.98253 18.3486 5.34863C18.3486 5.61551 18.2629 5.781 18.166 5.87793C18.0691 5.97483 17.9037 6.06053 17.6367 6.06055C17.3697 6.06055 17.2043 5.97484 17.1074 5.87793C17.0105 5.78102 16.9248 5.61559 16.9248 5.34863C16.9248 5.08174 17.0105 4.91622 17.1074 4.81934C17.2043 4.72248 17.3698 4.63672 17.6367 4.63672Z" fill="#1E1E1C" stroke="#1E1E1C" stroke-width="1.46702"/>
</svg>
