<svg width="22" height="24" viewBox="0 0 22 24" fill="none" xmlns="http://www.w3.org/2000/svg">
<path d="M0.475205 9.8598C0.475205 8.65611 1.45099 7.68032 2.65468 7.68032C3.85837 7.68032 4.83416 8.65611 4.83416 9.8598V20.9505C4.83416 22.1542 3.85837 23.13 2.65468 23.13C1.45099 23.13 0.475205 22.1542 0.475205 20.9505V9.8598ZM2.65652 5.56803C4.0483 5.56803 5.18302 4.3217 5.18302 2.78402C5.18302 2.41841 5.11767 2.05639 4.9907 1.71862C4.86373 1.38085 4.67763 1.07394 4.44303 0.815419C4.20842 0.5569 3.9299 0.35183 3.62337 0.21192C3.31684 0.07201 2.9883 0 2.65652 0C2.32473 0 1.9962 0.07201 1.68967 0.21192C1.38314 0.35183 1.10462 0.5569 0.87001 0.815419C0.635403 1.07394 0.449301 1.38085 0.322332 1.71862C0.195364 2.05639 0.130014 2.41841 0.130014 2.78402C0.126342 4.3217 1.25739 5.56803 2.65652 5.56803ZM11.9216 15.4861C11.9216 13.4709 12.2704 11.5205 14.5362 11.5205C16.7689 11.5205 16.802 13.823 16.802 15.6156V20.9524C16.802 22.155 17.777 23.13 18.9796 23.13C20.1823 23.13 21.1573 22.155 21.1573 20.9524V14.6566C21.1573 10.4967 20.342 7.2959 15.9317 7.2959C13.8246 7.2959 12.4075 8.56444 11.8176 9.77237C11.8115 9.78483 11.7989 9.79262 11.7851 9.79262C11.7651 9.79262 11.749 9.77647 11.749 9.75654V8.73647C11.749 8.15318 11.2761 7.68032 10.6928 7.68032H9.65765C8.50263 7.68032 7.56631 8.61665 7.56631 9.77167V20.9524C7.56631 22.155 8.54127 23.13 9.74395 23.13C10.9466 23.13 11.9216 22.155 11.9216 20.9524V15.4861Z" fill="#1E1E1C"/>
</svg>
