<svg width="463" height="485" viewBox="0 0 463 485" fill="none" xmlns="http://www.w3.org/2000/svg">
<mask id="mask0_643_424" style="mask-type:luminance" maskUnits="userSpaceOnUse" x="-42" y="0" width="505" height="485">
<path d="M462.379 16.4006L447.059 484.795L-41.2417 468.824L-25.9216 0.429401L462.379 16.4006Z" fill="white"/>
</mask>
<g mask="url(#mask0_643_424)">
<mask id="mask1_643_424" style="mask-type:luminance" maskUnits="userSpaceOnUse" x="-135" y="-32" width="701" height="603">
<path d="M422.275 -31.1642L565.258 373.493L8.33271 570.273L-134.646 165.611L422.275 -31.1642Z" fill="white"/>
</mask>
<g mask="url(#mask1_643_424)">
<path d="M378.43 423.567C383.096 414.869 382.915 404.871 377.713 396.473C375.708 393.229 373.197 390.505 370.232 388.196C387.75 372.55 401.971 353.422 410.654 331.264C419.583 308.592 422.161 283.514 416.837 259.685C410.98 233.379 396.239 209.177 376.472 190.965C375.849 190.414 375.221 189.857 374.702 189.355C374.494 180.744 372.287 172.063 366.836 165.392C361.227 158.519 352.302 154.188 343.419 156.553C339.261 157.681 335.683 159.973 332.762 162.899C299.995 148.763 262.484 144.821 227.794 150.802C223.497 151.546 219.181 152.467 214.841 153.57C212.814 109.142 234.734 64.3341 270.289 37.9265C309.795 8.57568 363.309 6.95123 406.804 28.5629C427.89 39.0838 446.197 54.8851 458.763 74.867C459.159 75.5027 459.691 75.0576 459.32 74.496C434.668 35.395 388.614 12.3717 342.821 12.7284C319.49 12.8903 296.501 19.3824 276.875 31.9877C257.382 44.4691 241.442 62.3968 230.5 82.7729C218.835 104.522 213.152 129.319 214.357 153.655C191.689 159.599 170.164 170.476 153.437 187.137C136.961 203.536 125.089 225.182 122.3 248.439C119.404 272.856 127.746 297.682 141.822 317.557C156.764 338.679 178.274 354.297 202.19 363.816C219.987 370.859 238.752 374.806 257.739 376.952C258.268 387.946 259.621 399.076 263.603 409.362C266.856 417.844 271.962 425.241 278.28 431.437C275.059 432.06 271.838 432.678 268.671 433.197C225.278 440.103 179.539 435.026 139.244 417.356C119.188 408.536 100.409 396.51 84.6686 381.178C65.1509 362.191 50.9295 338.496 42.2609 312.749C37.3082 297.993 34.1364 282.687 32.4745 267.279C37.8111 263.158 43.2567 259.344 48.9643 255.78C59.8376 248.841 72.4077 241.821 79.3347 230.517C86.4145 219.159 85.3226 199.763 75.7116 190.089C70.5156 184.873 63.2699 184.082 56.5193 186.636C44.5215 191.134 37.1 204.679 33.5343 216.257C29.7577 228.685 29.6345 241.969 30.5074 254.902C30.7564 258.77 31.084 262.613 31.5109 266.501C24.1 272.303 17.0351 278.584 10.5933 285.415C-19.7843 317.478 -38.2534 360.375 -38.2254 404.738C-38.2485 426.584 -33.782 448.224 -25.2915 468.356C-25.103 468.894 -24.2295 468.927 -24.5513 468.266C-42.7924 424.668 -40.9103 375.243 -20.5897 332.723C-10.6553 311.929 3.37342 293.215 20.3001 277.6C24.0095 274.228 27.7691 271.004 31.7699 267.961C32.9238 278.041 34.6649 288.089 37.1553 298.048C43.9661 324.875 56.2714 350.453 74.4703 371.539C102.54 404.012 142.676 424.145 184.371 432.629C215.486 438.921 248.208 439.053 279.482 432.644C290.98 443.286 306.304 449.91 322.195 450.833C342.933 451.845 367.955 443.089 378.43 423.567ZM32.1028 226.564C34.3278 213.137 40.2905 198.135 52.0203 190.207C59.5214 185.15 69.7102 184.297 76.0449 191.52C81.4152 197.708 83.0116 206.858 82.5674 214.839C82.0038 224.931 77.3695 232.5 69.9755 239.323C59.9602 248.452 47.5805 254.549 36.6205 262.46C35.0978 263.514 33.6047 264.646 32.1116 265.774C30.834 252.898 30.0049 239.605 32.1028 226.564ZM404.561 228.594C417.224 252.755 421.691 280.243 416.58 307.156C412.084 330.93 400.633 353.034 385.113 371.415C380.189 377.198 374.875 382.601 369.322 387.571C363.111 382.89 355.343 380.131 347.756 378.857C334.152 376.613 320.047 378.07 306.254 378.214C292.023 378.339 277.707 377.981 263.478 376.645C261.78 376.471 260.191 376.346 258.493 376.171C258.148 368.38 258.242 360.608 257.971 352.792C257.888 350.843 257.801 348.898 257.688 346.875C266.956 341.707 275.336 334.274 281.51 326.678C298.092 306.198 305.628 280.316 310.224 254.874C331.032 253.888 350.556 244.407 362.781 226.93C369.435 217.532 373.673 206.401 374.52 194.922C374.621 193.51 374.697 192.024 374.67 190.485C386.681 201.117 396.83 213.785 404.561 228.594ZM310.439 253.768C310.483 253.408 310.552 253.127 310.6 252.766C313.203 237.741 315.01 222.657 317.612 207.636C319.961 194.081 322.009 178.222 330.708 167.063C331.46 166.025 332.342 165.111 333.224 164.196C348.055 170.653 361.799 179.125 373.859 189.653C373.892 191.449 373.846 193.27 373.672 194.963C371.625 219.595 353.97 241.657 330.778 249.763C324.155 252.189 317.278 253.415 310.439 253.768ZM361.217 160.927C370.047 167.182 373.447 178.017 373.788 188.473C361.935 178.044 348.502 169.719 334.051 163.39C341.598 156.507 352.15 154.499 361.217 160.927ZM269.9 149.51C291.205 150.665 312.472 155.362 332.009 163.68C327.355 168.767 324.244 175.538 322.282 181.908C317.917 196.088 315.955 210.974 313.807 225.575C312.408 235.013 311.088 244.421 309.413 253.785C290.475 254.457 271.203 248.112 256.151 236.662C233.429 219.32 219.625 191.696 215.921 163.68C215.53 160.635 215.248 157.641 215.04 154.621C232.856 150.043 251.575 148.503 269.9 149.51ZM184.047 354.321C160.212 340.899 140.405 320.126 130.025 294.638C125.141 282.522 122.295 269.599 122.65 256.487C123.072 244.297 126.114 232.217 131.117 221.075C141.624 197.758 160.37 179.011 182.845 166.939C192.828 161.605 203.449 157.598 214.448 154.656C215.764 177.837 223.396 200.424 238.127 219.469C253.481 239.322 276.107 252.742 301.346 254.57C303.992 254.753 306.686 254.836 309.326 254.762C308.344 260.01 307.362 265.262 306.093 270.436C300.056 295.703 289.08 321.334 268.533 338.141C265.198 340.866 261.551 343.444 257.666 345.593C256.693 334.328 253.825 323.043 246.742 314.194C240.159 306.029 229.426 300.966 218.937 302.18C207.93 303.4 200.219 312.233 199.617 323.193C199.04 333.972 205.083 343.534 214.282 348.881C228.223 356.938 243.589 354.432 256.949 347.222C257.476 355.033 257.358 362.983 257.526 370.75C257.608 372.442 257.611 374.159 257.693 375.852C232.156 373.18 206.504 367.02 184.047 354.321ZM228.145 352.581C214.449 351.057 201.329 341.419 200.404 326.873C199.556 314.015 208.675 303.31 221.672 303.103C236.205 302.869 247.569 313.126 252.597 326.144C255.125 332.56 256.219 339.309 256.754 346.172C248.014 350.895 238.116 353.791 228.145 352.581ZM260.513 395.753C259.377 389.617 258.802 383.37 258.514 377.197C266.836 378.124 275.285 378.666 283.65 378.977C297.686 379.518 311.68 379.22 325.753 378.888C340.008 378.585 355.193 378.977 367.496 387.273C367.94 387.544 368.301 387.849 368.667 388.15C343.497 410.368 311.981 424.604 279.05 431.421C269.104 421.777 263.115 409.447 260.513 395.753ZM282.979 434.764C282.016 433.986 281.027 433.13 280.113 432.248C291.33 429.922 302.402 426.695 313.147 422.554C333.676 414.699 353.116 403.274 369.625 388.671C379.405 396.395 383.91 408.901 378.558 420.769C374.193 430.311 365.423 437.621 356.278 442.4C332.955 454.513 303.356 451.297 282.979 434.764Z" fill="#CFA799"/>
</g>
</g>
</svg>
