<svg width="171" height="90" viewBox="0 0 171 90" fill="none" xmlns="http://www.w3.org/2000/svg">
<path d="M134.571 65.1847C133.132 65.1847 131.214 64.5355 130.243 61.4536C129.536 59.208 129.191 55.7284 129.191 50.816C129.191 48.1493 129.284 45.7398 129.466 43.6579C129.653 41.5234 130.109 39.8041 130.828 38.5526C131.618 37.1724 132.91 36.4473 134.571 36.4473C135.805 36.4473 136.77 36.8332 137.442 37.5876C138.056 38.2777 138.495 39.2485 138.746 40.4707C138.974 41.6228 139.109 42.9796 139.132 44.5118C139.15 45.6346 139.162 46.8627 139.167 48.1726C140.15 47.5469 141.103 46.9855 142.015 46.5176C143.337 45.8276 144.583 45.4767 145.711 45.4767C146.618 45.4767 147.396 45.6989 148.021 46.1317C148.618 46.541 149.086 47.0791 149.413 47.734C149.723 48.3773 149.881 49.0265 149.881 49.6814C149.881 50.8452 149.466 51.9154 148.647 52.8569C148.033 53.5587 147.29 54.2605 146.378 54.9798C146.548 55.2137 146.717 55.4535 146.881 55.7108C147.232 56.2547 147.554 56.7518 147.852 57.2372C148.314 57.9331 148.706 58.6933 149.004 59.4653C149.326 60.284 149.483 61.0442 149.483 61.7226C149.483 62.594 149.255 63.3133 148.799 63.8513C148.372 64.3601 147.846 64.7227 147.226 64.9332C146.647 65.132 146.074 65.2139 145.466 65.1847C144.53 65.1204 143.624 64.6876 142.752 63.904C141.975 63.208 141.208 62.3718 140.472 61.4244C140.173 61.0501 139.858 60.6232 139.536 60.167C139.343 59.8863 139.167 59.6232 138.998 59.3658C138.945 59.3834 138.887 59.4009 138.834 59.4243C138.629 61.2314 138.261 62.5647 137.705 63.4829C137.062 64.5648 136.015 65.1554 134.67 65.1847C134.635 65.1847 134.6 65.1905 134.565 65.1905L134.571 65.1847ZM139.302 57.7401C139.548 57.7401 139.782 57.8629 139.916 58.0793C140.167 58.4769 140.437 58.8863 140.746 59.3249C141.045 59.7518 141.349 60.1553 141.635 60.5121C142.32 61.3951 143.027 62.1671 143.741 62.8104C144.366 63.3718 144.98 63.6817 145.571 63.7227C145.975 63.7402 146.366 63.6876 146.77 63.5472C147.144 63.4186 147.442 63.2139 147.7 62.9098C147.928 62.6408 148.039 62.2373 148.039 61.7168C148.039 61.1963 147.91 60.6349 147.659 59.9916C147.396 59.3132 147.051 58.6465 146.635 58.0149C146.331 57.5179 146.021 57.0325 145.676 56.5061C145.384 56.0675 145.092 55.6582 144.799 55.2956C144.676 55.1435 144.618 54.9447 144.647 54.7459C144.676 54.547 144.776 54.3716 144.934 54.2546C146.016 53.4476 146.893 52.6581 147.554 51.8979C148.144 51.2195 148.431 50.4943 148.431 49.6814C148.431 49.2545 148.326 48.8159 148.115 48.3832C147.899 47.9563 147.6 47.6112 147.203 47.3364C146.817 47.0674 146.337 46.9387 145.723 46.9387C144.828 46.9387 143.811 47.2311 142.7 47.8101C141.524 48.4183 140.273 49.1727 138.98 50.0499L138.858 50.1317C138.635 50.2779 138.343 50.2955 138.109 50.1668C137.869 50.0382 137.723 49.7926 137.723 49.5235C137.723 47.7106 137.711 46.0322 137.682 44.5351C137.659 43.0907 137.536 41.8216 137.325 40.7573C137.127 39.7924 136.805 39.0555 136.36 38.5526C135.969 38.114 135.39 37.9034 134.583 37.9034C133.431 37.9034 132.641 38.342 132.109 39.2777C131.495 40.3479 131.103 41.8626 130.933 43.7866C130.752 45.8276 130.664 48.1902 130.664 50.816C130.664 55.512 130.998 58.9389 131.647 61.0092C132.384 63.3542 133.6 63.6993 134.489 63.7168C134.518 63.7168 134.548 63.7168 134.577 63.7168C135.472 63.7168 136.074 63.401 136.472 62.7285C136.951 61.9273 137.279 60.6056 137.448 58.7927C137.477 58.4945 137.682 58.243 137.969 58.1611C138.355 58.05 138.7 57.9272 139.033 57.7927C139.121 57.7576 139.214 57.7401 139.308 57.7401H139.302Z" fill="#1E1E1C"/>
<path d="M53.7622 49.7927C53.7622 49.7927 53.5517 49.6757 53.1833 49.471C52.8265 49.278 52.3236 49.0382 51.7446 48.8219C51.1598 48.6055 50.5166 48.4125 49.7563 48.2663C48.9902 48.126 48.1071 47.9914 46.9551 48.0616C47.1071 47.7049 47.4814 47.2721 48.0721 46.9563C48.6627 46.6347 49.4756 46.4476 50.3353 46.5353C51.2008 46.623 52.0897 47.0148 52.7213 47.623C53.3587 48.2254 53.7505 49.0324 53.7622 49.7868V49.7927Z" fill="#1E1E1C"/>
<path d="M63.4702 47.0615C63.4702 47.0615 63.3416 46.8744 63.2655 46.4767C63.1837 46.0849 63.1778 45.465 63.4995 44.7749C63.6574 44.4357 63.8971 44.0849 64.2363 43.7691C64.5755 43.465 65.0199 43.1959 65.517 43.0673C66.4995 42.7807 67.751 43.0205 68.5054 43.8568C68.1428 43.9737 67.6867 44.0732 67.2305 44.2369C66.7744 44.389 66.3124 44.5936 65.8972 44.8393C65.0784 45.3363 64.3182 46.0089 63.4644 47.0498H63.4702V47.0557V47.0615Z" fill="#1E1E1C"/>
<path d="M41.3937 55.7112C41.4346 55.5592 42.3118 55.7112 43.5458 55.565C43.8499 55.5241 44.1832 55.4656 44.5224 55.3779C44.8557 55.296 45.1657 55.1673 45.2768 54.9919C45.3879 54.8457 45.4055 54.5708 45.2885 54.3369C45.1832 54.0971 44.9435 53.8632 44.6335 53.6585C43.3937 52.793 41.7153 52.7404 40.7153 53.0854C40.2299 53.2433 40.0252 53.489 39.9141 53.7287C39.803 53.9568 39.8089 54.1381 39.686 54.2083C39.5925 54.2784 39.3059 54.1381 39.265 53.641C39.2533 53.4071 39.3059 53.1147 39.4814 52.8223C39.6627 52.5357 39.9609 52.2842 40.3001 52.1088C40.9785 51.7696 41.8089 51.6117 42.7153 51.6819C43.6159 51.7462 44.5633 52.0796 45.3587 52.6585C45.7505 52.9509 46.1715 53.3427 46.3821 53.9217C46.5868 54.4773 46.54 55.2024 46.0604 55.7112C45.5809 56.1849 45.0546 56.2492 44.6628 56.3077C44.2651 56.3545 43.8908 56.3662 43.5458 56.3545C42.1598 56.2843 41.3352 55.834 41.3761 55.7112H41.382H41.3937Z" fill="#E9ACBA"/>
<path d="M76.2423 48.4594C76.254 48.3892 76.5756 48.4126 76.8329 48.1085C76.9616 47.9623 77.061 47.7518 77.0318 47.5178C77.0142 47.2839 76.8739 47.0325 76.6458 46.8453C76.213 46.471 75.3826 46.4009 74.558 46.4652C73.7334 46.5354 72.8679 46.8102 72.1486 47.2664C71.7743 47.5003 71.4585 47.7576 71.2714 48.0442C71.0784 48.319 71.0199 48.6348 71.0667 48.8687C71.1194 49.3074 71.8036 49.5881 72.4001 49.6056C73.02 49.6348 73.6691 49.553 74.1253 49.6232C74.5931 49.6816 74.8446 49.8512 74.8153 49.9682C74.7861 50.1027 74.5405 50.1612 74.1487 50.2664C73.751 50.36 73.213 50.5647 72.3942 50.6466C71.9849 50.6758 71.517 50.6466 71.0258 50.4419C70.5404 50.2606 70.0024 49.7869 69.8503 49.1202C69.6983 48.4769 69.8854 47.8161 70.2422 47.3132C70.593 46.8102 71.0667 46.471 71.517 46.202C72.4469 45.6582 73.5171 45.3833 74.5171 45.3833C75.02 45.3833 75.4937 45.4359 75.9557 45.5646C76.4177 45.6932 76.8797 45.9155 77.2131 46.2897C77.5347 46.6465 77.6867 47.1143 77.64 47.5412C77.5932 47.9798 77.33 48.2839 77.0902 48.4301C76.8446 48.5822 76.599 48.6056 76.4469 48.5763C76.2949 48.5413 76.2306 48.4828 76.2423 48.4477H76.2364V48.4535L76.2423 48.4594Z" fill="#E9ACBA"/>
<path d="M64.8208 52.2254C64.9085 52.278 64.9378 52.4417 64.8559 52.699C64.774 52.9505 64.5577 53.278 64.1717 53.5646C63.7916 53.8453 63.2477 54.0616 62.6161 54.1026C62.2945 54.1143 61.9611 54.085 61.6102 53.9856C61.5225 53.9739 61.4991 53.9681 61.4757 53.9739C61.4582 53.9739 61.4465 53.9856 61.4406 53.9915V54.0792C61.4406 54.0792 61.4465 54.0792 61.4406 54.0909L61.3412 54.2079C61.2009 54.3482 61.0547 54.5003 60.8968 54.6114C60.7447 54.74 60.5751 54.8394 60.4114 54.933C59.7389 55.2956 59.0078 55.4067 58.4055 55.3424C58.1014 55.3073 57.8265 55.2313 57.5926 55.1318C57.3587 55.0207 57.1715 54.9038 57.0487 54.7693C56.9142 54.6523 56.8441 54.5061 56.809 54.3891C56.7739 54.278 56.7973 54.1786 56.8558 54.0909C56.9142 54.0032 57.0078 53.9505 57.1131 53.9096C57.2183 53.8687 57.3411 53.8628 57.4756 53.8453C57.6043 53.8336 57.7564 53.816 57.9201 53.8043C58.078 53.7868 58.2534 53.7576 58.4289 53.7166C58.7856 53.6347 59.1833 53.5002 59.5342 53.2722C59.6219 53.2137 59.7096 53.161 59.7798 53.0909C59.8675 53.0324 59.926 52.9505 59.9962 52.8862L60.0429 52.8277C60.0839 52.7809 60.1424 52.7224 60.1833 52.6523C60.271 52.5236 60.3412 52.3599 60.4231 52.2137L60.8792 51.3481C61.1131 51.5411 61.3471 51.7341 61.5751 51.933C61.6921 52.0382 61.8149 52.1318 61.9143 52.1903C62.0079 52.2487 62.1483 52.3482 62.2067 52.3833C62.3529 52.4534 62.5167 52.5002 62.6921 52.5353C63.0313 52.5879 63.3822 52.5762 63.6688 52.5178C64.2536 52.4008 64.6044 52.0967 64.7974 52.2137V52.2254H64.8033H64.8208Z" fill="#1E1E1C"/>
<path d="M62.5695 23.1079C62.6572 23.5582 62.8912 24.0669 63.2245 24.5348C62.9964 25.0377 62.8151 25.5231 62.6572 25.991C61.9438 25.6693 61.2537 25.3711 60.6572 25.1956C59.9262 24.9851 59.3063 24.95 58.9846 25.3594C58.6572 25.7629 58.8911 26.3535 59.4934 26.9383C60.0841 27.5173 61.0432 28.0612 62.0724 28.4179C61.9672 29.1197 61.9379 29.6811 61.9262 30.0495V30.646C62.3473 30.0027 62.7859 29.3653 63.2362 28.7279C63.9204 28.8682 64.5754 28.9267 65.1251 28.9033C65.9672 28.8624 66.5345 28.6518 66.5871 28.3653C66.6398 28.0729 66.1953 27.7395 65.5403 27.377C65.2596 27.2249 64.9497 27.067 64.6105 26.8974C64.8093 26.6459 65.0023 26.3945 65.207 26.1489C65.6281 26.3418 66.0374 26.4588 66.4 26.4997C67.131 26.5875 67.6339 26.4062 67.7158 26.1372C67.8035 25.8506 67.517 25.5056 67.131 25.1021C66.9731 24.9383 66.786 24.7512 66.6047 24.564L67.2187 23.9324C67.4527 23.6985 67.669 23.4821 67.862 23.3184C68.2538 22.9675 68.6047 22.8739 68.5579 22.9207C68.5696 22.9266 68.5228 22.9149 68.6223 22.9617C68.7158 23.0084 68.8796 23.1196 69.0784 23.295C69.5053 23.6693 69.9498 24.1079 70.3474 24.5289C71.9615 26.2775 73.1428 28.3009 73.9323 30.1899C74.7452 32.0788 75.1429 33.8215 75.4996 35.0438C76.1955 33.0671 76.3768 30.8975 76.0552 28.8741C75.7569 26.8389 74.9908 24.9325 73.9382 23.3301C73.4118 22.5172 72.8153 21.7862 72.1604 21.1429C71.8329 20.8213 71.5288 20.5113 71.0726 20.178C70.6282 19.8563 70.0667 19.523 69.3123 19.3651C68.5872 19.213 67.786 19.3359 67.2012 19.599C66.6164 19.8563 66.1895 20.1897 65.8444 20.5172C65.5052 20.8447 65.2304 21.1663 65.0082 21.4762C64.8152 21.7394 64.6339 22.0026 64.4643 22.2599C64.0608 21.8798 63.6339 21.5932 63.1368 21.7102C62.6338 21.8154 62.4175 22.3593 62.5637 23.1137L62.5695 23.1079Z" fill="#1E1E1C"/>
<path d="M39.376 39.6697C38.8379 40.2545 38.3993 40.7808 38.0718 41.2487C37.7327 41.7048 37.5221 42.1083 37.3993 42.4007C37.2824 42.6931 37.2648 42.892 37.3584 42.9797C37.4578 43.0674 37.6508 43.0265 37.9256 42.8861C38.2064 42.7458 38.5514 42.4885 38.9958 42.1668C39.4286 41.8393 39.9432 41.4416 40.5456 40.9855C41.1421 40.541 41.8205 40.044 42.569 39.5235C43.3351 39.0205 44.148 38.4767 45.0603 37.9562C45.955 37.4182 46.9375 36.9269 47.9609 36.4357C48.9902 35.9562 50.0779 35.5176 51.2066 35.1199C52.3353 34.7398 53.5049 34.4064 54.6862 34.1316C55.8734 33.8801 57.0781 33.6813 58.2652 33.5468C59.4582 33.4298 60.6454 33.3596 61.7916 33.3596C62.9437 33.3713 64.0548 33.4064 65.1133 33.5234C66.1718 33.6169 67.166 33.7748 68.0841 33.9269C69.0023 34.1023 69.8386 34.2836 70.5813 34.4591C71.3181 34.652 71.9673 34.8099 72.4994 34.962C73.0375 35.0965 73.4585 35.2251 73.7626 35.2836C74.0609 35.3421 74.2422 35.3421 74.2714 35.2778C74.3065 35.2135 74.1895 35.0789 73.9439 34.8918C73.6983 34.7047 73.324 34.4474 72.8269 34.19C72.3298 33.9093 71.7099 33.6169 70.9789 33.3011C70.2479 32.997 69.4058 32.6871 68.476 32.4005C67.5403 32.1257 66.511 31.8567 65.3999 31.6637C64.2946 31.4473 63.1133 31.3186 61.891 31.2251C60.6629 31.1432 59.3939 31.1549 58.0956 31.2251C56.8091 31.3128 55.4991 31.4824 54.2008 31.728C52.9142 31.9912 51.6394 32.3421 50.4171 32.7514C49.1949 33.1842 48.0194 33.6637 46.9141 34.2076C45.8205 34.7573 44.7737 35.3363 43.8439 35.9679C43.6568 36.0848 43.4813 36.2076 43.3059 36.3304C40.5456 34.8918 37.1888 33.8684 33.6273 33.4824C31.7501 33.2777 29.8144 33.2485 27.9021 33.383C27.5512 32.8508 27.2237 32.3362 26.9254 31.8976C26.4693 31.2426 26.0365 30.7572 25.5102 30.8391C25.0014 30.921 24.7792 31.5877 24.9312 32.5584C24.9839 32.9093 25.095 33.2894 25.2587 33.6813H25.2236L24.7207 33.769C24.4868 33.8041 24.247 33.8567 24.0189 33.9035L22.6212 34.1842L21.9312 34.3245L21.7791 34.3596C21.4809 34.1959 21.1885 34.0321 20.9136 33.8918C20.0306 33.4473 19.3112 33.2193 18.937 33.5935C18.5627 33.9503 18.8317 34.6871 19.5686 35.5059C20.1183 36.1316 20.9545 36.769 21.9078 37.3071C21.9195 37.4357 21.9253 37.5527 21.9487 37.6696C22.5628 42.0148 24.7909 45.3774 27.2178 47.5119C29.4986 49.5237 31.8729 50.3892 33.4987 50.6114C33.3115 50.6231 33.1127 50.629 32.9022 50.6407C32.6741 50.6582 32.4285 50.6524 32.1887 50.6582C31.6975 50.6582 31.177 50.6524 30.6623 50.6231C30.1419 50.5822 29.6331 50.5295 29.1418 50.4769C28.6448 50.4126 28.1769 50.3483 27.7792 50.3015C26.9547 50.2137 26.2938 50.2138 26.0131 50.6641C25.7383 51.0968 26.1184 51.7284 26.9898 52.243C27.2003 52.3775 27.4459 52.4886 27.7208 52.5939C27.9839 52.705 28.2763 52.7869 28.5863 52.8688C29.2003 53.015 29.8612 53.0793 30.5278 53.0676C31.1945 53.0501 31.8495 52.939 32.4402 52.7752C32.7326 52.6816 33.0191 52.5939 33.2764 52.477C33.5337 52.3658 33.7735 52.2489 33.9782 52.1202C34.8203 51.6173 35.2297 51.0617 35.101 50.8044C34.9841 50.5529 34.4636 50.5529 33.7501 50.588C32.6097 49.8512 31.598 49.0091 30.7091 48.0968C29.8085 47.1669 29.0015 46.1844 28.3582 45.1493C27.7032 44.1201 27.1652 43.0616 26.7266 42.0031C26.2997 40.9387 26.0014 39.8627 25.7851 38.8217C25.7734 38.7632 25.7675 38.6931 25.75 38.6346C26.0599 38.6872 26.364 38.7223 26.6389 38.734C27.7208 38.7983 28.4518 38.6287 28.5103 38.3422C28.5687 38.0498 27.9722 37.6755 27.1067 37.2252C27.0541 37.1959 26.9898 37.1667 26.9313 37.1375C27.019 37.1258 27.1126 37.1082 27.1944 37.0965C27.4576 37.0556 27.7266 37.0264 27.9839 36.9913C28.4401 37.2954 28.8962 37.541 29.3114 37.6872C30.2003 38.0205 30.867 37.9971 30.9898 37.7398C31.1009 37.5234 30.8612 37.1609 30.4927 36.7047C31.3056 36.6345 32.101 36.5702 32.8554 36.5293C33.7267 36.4883 34.563 36.4649 35.3525 36.4474C36.142 36.4415 36.8964 36.4474 37.5982 36.4591C38.2999 36.4766 38.9608 36.4942 39.5631 36.5293C40.1655 36.5585 40.7269 36.5936 41.2298 36.6345C41.7854 36.6755 42.2708 36.7164 42.6918 36.7515C42.2006 37.1082 41.7327 37.4767 41.3117 37.8334C40.569 38.4708 39.9257 39.0907 39.376 39.658H39.3409V39.6521L39.376 39.6697Z" fill="#1E1E1C"/>
<path d="M73.9031 36.2661C73.7862 36.5176 74.2891 37.079 75.2716 37.5293C76.2424 37.9972 77.6985 38.313 79.1489 38.2194C79.874 38.1785 80.5992 38.0381 81.2425 37.8217C81.57 37.7165 81.8682 37.5819 82.1548 37.4474C82.4413 37.3012 82.7454 37.1199 83.0203 36.8919C83.2834 36.658 83.5115 36.3597 83.6168 36.0556C83.7221 35.7573 83.7337 35.4766 83.6753 35.2544C83.6226 35.0263 83.4998 34.8743 83.377 34.81C83.2484 34.7398 83.1197 34.7456 82.9969 34.7807C82.7513 34.8743 82.57 35.0088 82.3945 35.0322C82.3068 35.0497 82.2308 35.0673 82.1489 35.079C82.0787 35.079 82.0086 35.079 81.8916 35.1199C81.529 35.2135 81.1021 35.3187 80.6401 35.4416C80.1196 35.5702 79.5641 35.6872 78.991 35.7807C77.8506 35.9679 76.6459 36.0205 75.6985 36.0205C74.7511 36.0264 74.0376 36.0088 73.909 36.2778H73.9031V36.272V36.2661Z" fill="#1E1E1C"/>
<path d="M83.1081 39.0733C82.7572 39.1845 82.3771 39.3073 81.9852 39.4184C81.5934 39.5178 81.1899 39.6055 80.7805 39.6698C80.5817 39.6874 80.3829 39.7283 80.1957 39.74C80.0027 39.7576 79.8156 39.781 79.646 39.7926C78.9442 39.8511 78.3711 39.8745 78.2249 40.1377C78.1548 40.2663 78.2074 40.4418 78.3711 40.6582C78.529 40.8687 78.8156 41.1085 79.1957 41.3073C79.3829 41.4126 79.5992 41.5061 79.8332 41.5939C80.0671 41.6874 80.3244 41.7401 80.5817 41.7985C81.1139 41.898 81.6987 41.9155 82.2776 41.857C82.8566 41.7868 83.418 41.6289 83.9093 41.4067C84.1549 41.2898 84.3888 41.1669 84.5876 41.0207C84.7923 40.8804 84.9795 40.7342 85.1257 40.5704C85.4298 40.2663 85.6227 39.933 85.6929 39.6406C85.7573 39.3482 85.6988 39.1026 85.5292 38.9096C85.1666 38.5236 84.6578 38.5821 84.073 38.7517C83.9268 38.7985 83.7748 38.8453 83.6052 38.8979C83.4473 38.9505 83.2777 39.009 83.1022 39.0733H83.1081Z" fill="#1E1E1C"/>
<path d="M32.0426 53.9042C31.8964 53.9627 31.7443 54.0095 31.5747 54.068C31.4168 54.1265 31.2414 54.1733 31.0718 54.2434C30.7209 54.3487 30.3466 54.454 29.9782 54.5475C29.2297 54.723 28.4753 54.8282 27.8437 54.9452C27.2179 55.0797 26.6858 55.2435 26.4869 55.7405C26.3934 55.9862 26.4401 56.2201 26.6156 56.454C26.791 56.6821 27.101 56.8868 27.5045 57.0271C27.7033 57.0973 27.9314 57.1558 28.1712 57.185C28.4109 57.2259 28.6683 57.2318 28.9373 57.2318C29.4694 57.2201 30.025 57.1148 30.5513 56.9335C31.0777 56.7406 31.5747 56.4832 31.9841 56.1791C32.1888 56.0212 32.3818 55.8692 32.5397 55.6879C32.7034 55.5242 32.8496 55.3546 32.9666 55.185C33.4461 54.5066 33.5163 53.9276 33.2999 53.7463C33.0719 53.5475 32.6099 53.7054 32.025 53.9218H32.0426V53.9159V53.9042Z" fill="#1E1E1C"/>
<path d="M93.9502 41.8277C93.2368 42.1084 92.5408 42.3716 91.8566 42.6231C91.5174 42.7576 91.1841 42.8687 90.8742 42.9506C90.7104 43.0032 90.5408 43.0558 90.3712 43.0968C89.6987 43.2898 89.032 43.4009 88.3829 43.4944C87.0904 43.6582 85.8682 43.6582 84.8331 43.5646C84.5758 43.5354 84.3302 43.5237 84.0962 43.4827C83.8623 43.4477 83.6401 43.4301 83.4296 43.3892C83.0085 43.3307 82.6518 43.2605 82.3477 43.2079C81.7453 43.1026 81.3827 43.0675 81.3243 43.1786C81.2716 43.2839 81.5289 43.5529 82.0787 43.8804C82.3535 44.0442 82.6986 44.2254 83.1138 44.4067C83.3184 44.5061 83.5465 44.5822 83.7863 44.664C84.0261 44.7576 84.2834 44.8219 84.5582 44.9038C85.646 45.2138 86.991 45.4126 88.4764 45.3951C89.2191 45.3775 89.9969 45.3249 90.7864 45.167C90.9853 45.1377 91.1841 45.0851 91.3829 45.05H91.418L91.4356 45.0617C91.4356 45.0793 91.418 45.0968 91.418 45.1027C91.418 45.0968 91.4122 45.1377 91.4063 45.1553L91.3712 45.319C91.3245 45.553 91.2718 45.7869 91.2075 46.0091C90.956 46.9273 90.5934 47.8162 90.1373 48.6349C89.9092 49.0384 89.6636 49.4361 89.3946 49.8045C89.1197 50.1846 88.8507 50.518 88.5583 50.8279C88.2659 51.1496 87.9384 51.4303 87.6168 51.711C87.2893 51.9858 86.9618 52.2431 86.6284 52.4829C85.3068 53.442 84.0436 54.0911 83.1488 54.5765C82.2541 55.0502 81.6868 55.3543 81.7278 55.6584C81.7629 55.9508 82.4471 56.1087 83.5582 55.9567C83.6576 55.945 83.7629 55.9216 83.8623 55.904V55.945C83.8799 56.2549 83.95 56.6175 84.1021 56.9742C84.1664 57.1614 84.26 57.3368 84.377 57.524C84.4764 57.7169 84.6167 57.8807 84.7571 58.062C84.9033 58.2374 85.067 58.4012 85.2425 58.5649C85.4296 58.7111 85.605 58.8866 85.8214 59.0094C86.0261 59.1439 86.2425 59.2842 86.4647 59.3895C86.5758 59.4421 86.6928 59.5006 86.8039 59.5532C86.8097 59.5591 86.8039 59.5591 86.8039 59.5649C86.8039 59.5708 86.798 59.5766 86.798 59.5766C86.798 59.5766 86.8273 59.5708 86.8273 59.5942V59.6059C86.8273 59.6059 86.8331 59.6059 86.8214 59.6176L86.722 59.6877C86.5875 59.7813 86.4589 59.8749 86.3127 59.9626C86.0261 60.138 85.722 60.2901 85.412 60.4304C84.7805 60.6936 84.1079 60.8866 83.4471 61.0094C82.7804 61.1147 82.0611 61.1848 81.4354 61.2024C80.1663 61.2433 79.1078 61.027 78.371 60.7112C78.1254 60.6117 77.9207 60.5123 77.7394 60.4246C77.9382 60.1497 78.1137 59.8924 78.2599 59.6527C78.5874 59.1614 78.7803 58.7228 78.8915 58.4187C78.9967 58.1088 79.0026 57.9099 78.8973 57.8281C78.792 57.7462 78.5991 57.7988 78.3242 57.9743C78.0493 58.138 77.7102 58.4421 77.2774 58.8047C76.8505 59.179 76.3417 59.6293 75.7569 60.138C75.4586 60.3895 75.1428 60.6585 74.8154 60.9334C74.4762 61.2082 74.1253 61.4889 73.751 61.793C72.9966 62.3662 72.172 62.9802 71.2539 63.5709C70.3533 64.1732 69.3533 64.7463 68.3123 65.3019C67.2655 65.8516 66.1485 66.3487 64.9906 66.8165C63.8268 67.261 62.628 67.647 61.4057 67.9745C60.1776 68.2786 58.932 68.5183 57.6922 68.6938C56.4524 68.8458 55.2185 68.9394 54.0255 68.9569C52.8325 68.9628 51.6687 68.9452 50.5634 68.8283C49.4581 68.7406 48.423 68.5827 47.4698 68.4306C46.9902 68.337 46.5341 68.2435 46.1013 68.1674C45.6686 68.068 45.2592 67.9745 44.8732 67.8867C44.1013 67.6879 43.4346 67.5125 42.8732 67.3546C42.3176 67.2142 41.879 67.0739 41.5632 67.0154C41.2533 66.951 41.072 66.951 41.0369 67.0154C41.0018 67.0797 41.1246 67.2142 41.3761 67.4072C41.6334 67.5943 42.0135 67.8633 42.5399 68.1382C43.0603 68.4306 43.7095 68.7289 44.4639 69.0622C44.5224 69.0797 44.5925 69.109 44.651 69.1324C44.5399 69.1441 44.4229 69.1675 44.3001 69.1967C44.1188 69.2318 43.9258 69.2786 43.7212 69.3429C43.5223 69.4131 43.2884 69.4716 43.0486 69.5359C42.8089 69.6178 42.5574 69.6821 42.2825 69.7464C42.0194 69.8283 41.727 69.8868 41.4229 69.9511C41.1305 70.033 40.8088 70.0564 40.493 70.1265C40.1655 70.1675 39.838 70.2201 39.4989 70.2377C39.1538 70.2552 38.8088 70.2903 38.4579 70.2844C38.107 70.2961 37.7444 70.2727 37.3877 70.2552C37.031 70.2201 36.6625 70.1967 36.3117 70.1382C35.9549 70.0856 35.5982 70.0213 35.2532 69.9336C34.9023 69.8692 34.5689 69.7406 34.2356 69.647C34.0835 69.6119 33.9373 69.5827 33.797 69.5476C33.7151 69.53 33.6449 69.5008 33.5689 69.4833C33.487 69.454 33.3818 69.4306 33.3408 69.3546C33.3233 69.2961 33.3467 69.261 33.3759 69.2201L33.4578 69.0914C33.5163 69.0037 33.5923 68.9043 33.6742 68.7932C33.7268 68.7347 33.7385 68.6996 33.8321 68.606C33.914 68.5242 33.9841 68.4482 34.0602 68.3721C34.1654 68.261 34.2648 68.1557 34.3584 68.0446C34.5865 68.0271 34.8087 67.9978 35.0309 67.9862C35.528 67.9452 35.9959 67.8283 36.4345 67.7522C36.8731 67.6704 37.2707 67.5242 37.645 67.4189C38.0193 67.3195 38.3409 67.1616 38.6392 67.0271C38.9316 66.8867 39.1948 66.7814 39.4111 66.6294C39.6217 66.489 39.803 66.3545 39.9433 66.2434C40.2182 66.0037 40.3293 65.8165 40.2708 65.6703C40.2123 65.53 39.9901 65.4656 39.6451 65.4656C39.4696 65.4656 39.2708 65.4832 39.0427 65.5124C38.8146 65.5534 38.5456 65.5592 38.2532 65.6001C37.9608 65.6352 37.6509 65.6996 37.2941 65.7113C36.9491 65.7288 36.5807 65.799 36.183 65.8048C35.7853 65.8048 35.3701 65.8633 34.9315 65.8458C34.4929 65.8282 34.0368 65.8516 33.5631 65.799C33.3233 65.7814 33.0835 65.7639 32.8379 65.7463C32.5923 65.7113 32.3467 65.682 32.0952 65.6469C31.5923 65.5943 31.0835 65.4656 30.5689 65.3604C30.0601 65.2317 29.5279 65.0972 29.0074 64.9218C28.4869 64.7405 27.9606 64.565 27.446 64.3253C26.9197 64.1206 26.4284 63.8282 25.9196 63.5767C25.4401 63.2726 24.9313 63.0036 24.481 62.6527L24.3056 62.5241C24.2588 62.489 24.1652 62.4246 24.1711 62.4305L24.1184 62.4012L24.0073 62.3428C23.9605 62.3135 23.9138 62.2843 23.8611 62.2433C23.826 62.2083 23.6974 62.1381 23.7617 62.1439C23.9138 62.0913 24.06 62.0445 24.2062 61.9919C24.6272 61.91 25.0366 61.793 25.4284 61.6819C25.8202 61.5474 26.2062 61.4363 26.5688 61.2843C28.0366 60.7053 29.2589 59.9568 30.1829 59.2024C30.6507 58.8398 31.0426 58.4655 31.37 58.1263C31.6975 57.7871 31.9549 57.4713 32.1478 57.2023C32.3467 56.9391 32.4695 56.7052 32.5455 56.5356C32.6157 56.3719 32.6391 56.2608 32.5923 56.2257C32.5455 56.1906 32.4402 56.214 32.2882 56.29C32.1303 56.3719 31.9315 56.5181 31.6624 56.6877C31.4051 56.869 31.0893 57.0795 30.7209 57.3193C30.3583 57.559 29.9314 57.8164 29.4519 58.0737C28.5045 58.6 27.3349 59.1146 25.9898 59.4889C25.6565 59.5942 25.3056 59.6643 24.9547 59.7404C24.598 59.8047 24.2354 59.8807 23.8728 59.9217C23.5336 59.986 23.095 60.0094 22.6681 60.0211C22.2354 60.0328 21.8201 60.062 21.3523 60.062C20.4166 60.0503 19.4634 60.0445 18.5043 60.0269C18.7791 60.3369 19.1944 60.7989 19.5628 61.2024C19.9429 61.6059 20.3113 62.0445 20.7207 62.4422C21.1184 62.8457 21.516 63.2551 21.9254 63.6586C22.1184 63.8574 22.3523 64.0796 22.5804 64.2434L23.019 64.5826C23.5278 65.0095 24.1126 65.337 24.6682 65.7054C25.253 66.0095 25.8202 66.3545 26.4284 66.5943C27.0191 66.875 27.6331 67.0797 28.2355 67.2785C28.8378 67.4715 29.4519 67.6177 30.0425 67.7464C30.6449 67.8458 31.2297 67.9628 31.8086 67.9978C31.9432 68.0095 32.0718 68.0154 32.2063 68.0329C32.1595 68.0622 32.1127 68.0914 32.0601 68.1207C31.8671 68.2376 31.6624 68.3663 31.5104 68.5125C31.3583 68.6587 31.2531 68.8049 31.1712 68.9452C31.0893 69.0856 31.0309 69.2026 31.0192 69.4306C31.0309 69.7055 31.0309 69.8634 31.2531 70.0505C31.4285 70.2377 31.604 70.4306 31.7853 70.6236C31.9315 70.8342 32.2414 70.9804 32.528 71.15C32.8028 71.302 33.1303 71.5008 33.3759 71.6295C33.7619 71.7932 34.1479 71.9921 34.5572 72.1207C34.9608 72.2728 35.3877 72.3839 35.8204 72.4833C36.2473 72.5886 36.6918 72.6471 37.1245 72.7114C37.5632 72.7465 38.0018 72.7933 38.4345 72.7757C38.8673 72.7874 39.3 72.7465 39.7152 72.7114C40.1363 72.6646 40.5398 72.5827 40.9316 72.5067C41.0778 72.4658 41.224 72.4248 41.3702 72.3956C41.224 72.5126 41.0837 72.6295 40.9667 72.7406C40.1772 73.4541 39.8731 73.9278 39.9375 73.998C40.0252 74.0915 40.4755 73.7699 41.3468 73.2553C42.2124 72.7348 43.534 72.0389 45.3528 71.5944C46.2534 71.3663 47.2885 71.2084 48.3996 71.1558C49.5224 71.1266 50.7388 71.2084 51.9903 71.4891C53.2477 71.764 54.5459 72.2377 55.7682 72.9746C56.9846 73.7114 58.1542 74.7056 58.8794 75.9629C59.2361 76.5887 59.4583 77.2553 59.5051 77.9571C59.5343 78.6472 59.4174 79.4425 59.1425 80.115C58.8618 80.8051 58.4115 81.4426 57.8209 82.0274C57.5285 82.3198 57.1951 82.5946 56.8442 82.8636C56.6688 82.9981 56.4875 83.1209 56.3004 83.2496C56.1191 83.3666 55.9495 83.4484 55.7682 83.5537C55.0138 83.9338 54.1132 84.273 53.1775 84.542C52.7096 84.6824 52.2418 84.8227 51.7506 84.928C51.2652 85.045 50.7739 85.1678 50.271 85.2613C48.271 85.659 46.1774 85.9573 44.0253 86.0918C39.7269 86.39 35.1888 86.2087 30.6741 85.3491C26.1711 84.4719 21.6564 82.9046 17.6973 80.3197C14.475 78.2554 11.6328 75.5652 9.48657 72.3664C7.32278 69.185 5.78474 65.5884 4.79057 61.8925C3.82563 58.1789 3.40457 54.3718 3.21159 50.6759C3.11217 47.091 3.74961 43.5412 4.77887 40.3014C6.84324 33.8042 10.586 28.4649 14.7908 25.5233C16.8785 24.0204 19.054 23.1432 21.0482 22.7045C22.7617 22.3303 24.329 22.2952 25.6799 22.3712C25.4343 23.0203 25.2354 23.5935 25.0834 24.073C24.6974 25.2835 24.557 25.9327 24.557 25.9327C25.3816 24.1198 26.4109 22.342 27.5045 20.5466C28.6098 18.7571 29.8028 16.9617 31.0659 15.1722C32.218 13.5289 34.1128 11.0493 34.1654 11.3008C34.2181 11.2657 34.2999 11.254 34.3526 11.3067C34.4052 11.371 34.3818 11.4646 34.3701 11.5406C34.3701 11.5815 34.3643 11.6108 34.3584 11.6517V11.7043C34.3584 11.7043 34.3643 11.716 34.3701 11.7219C34.3759 11.7219 34.3584 11.7219 34.3876 11.7336L34.528 11.8037L34.8087 11.9499C35.0075 12.0786 35.1362 12.0494 35.3058 12.0786C35.4637 12.0845 35.6099 12.0961 35.8731 12.0318C35.9842 11.9967 36.1011 11.9616 36.2064 11.9149C36.2707 11.8798 36.2941 11.8739 36.3058 11.8622L36.3584 11.8271L36.5748 11.6868C36.7737 11.5406 36.9199 11.4119 37.0485 11.3008C38.0193 10.4119 38.762 9.59902 39.5866 8.78614C40.3995 7.96741 41.2065 7.17792 42.0428 6.42937C42.4638 6.05509 42.879 5.69251 43.306 5.35917L43.6276 5.1077C43.6861 5.06092 43.6627 5.09016 43.6802 5.07262L43.7212 5.06092C43.768 5.05507 43.7913 5.06092 43.803 5.09016C43.8147 5.1194 43.7563 5.15449 43.7504 5.16034H43.7387L43.7329 5.25391V5.32408C43.7329 5.36502 43.7153 5.32408 43.7329 5.47613C43.7913 5.94398 44.0077 6.36504 44.3528 6.68668C44.5457 6.86797 44.6393 6.91476 44.7738 6.98494C44.8908 7.04926 45.0604 7.11944 45.1539 7.14283C45.3001 7.18962 45.4873 7.22471 45.6101 7.2364C45.7504 7.2481 45.9434 7.26564 46.0136 7.25395H46.5399L47.4405 7.20716C48.616 7.15453 49.7505 7.09605 50.8792 7.07266C53.1249 7.02587 55.3822 7.06096 57.3179 7.45278C57.5226 7.49957 57.7156 7.5522 57.9027 7.60483C57.8559 7.60483 57.8092 7.61068 57.7624 7.61653C56.6805 7.71594 55.429 7.75688 54.7272 7.9908C54.0489 8.23642 53.7506 8.51713 53.6161 8.7686L53.4114 9.14287C53.3763 9.2072 53.3412 9.27153 53.2828 9.40604V9.43528C53.2828 9.43528 53.1483 9.43528 53.2009 9.45282V9.50545C53.195 9.54639 53.2009 9.56978 53.2009 9.59317C53.2009 9.65165 53.2126 9.67505 53.2301 9.71014C53.3588 9.92067 53.505 9.99084 53.6629 10.1546C53.7448 10.2248 53.8383 10.3359 53.9436 10.4645L54.119 10.7102L54.2477 10.8739C54.2886 10.9265 54.3179 10.9792 54.4348 11.061L54.7155 11.2716L54.7857 11.3242L54.9027 11.3827L55.1483 11.4938L55.3939 11.6049C55.4641 11.6458 55.5518 11.6751 55.6805 11.7102L56.3471 11.9032L56.932 12.0845C57.1191 12.1429 57.3179 12.1956 57.4232 12.2657L57.8033 12.4587C57.8618 12.4997 57.8735 12.5231 57.932 12.5991L57.9671 12.64C58.3296 13.1079 58.4174 13.7979 58.2712 14.0611C58.2244 14.1781 58.0372 14.3886 57.7741 14.5289C57.6396 14.5991 57.4934 14.6635 57.3413 14.7102C57.2594 14.7278 57.1834 14.757 57.1015 14.7687C57.0314 14.7804 56.9436 14.798 56.8091 14.8155C55.8618 14.9325 54.9319 15.0611 54.0196 15.2015C50.3938 15.757 47.1189 16.4647 44.3411 17.3477C42.9551 17.7863 41.686 18.2659 40.6041 18.8331C39.5339 19.3887 38.5632 20.0554 38.1655 20.8098C38.6333 20.2542 39.3994 19.9092 40.1363 19.6226C40.879 19.3244 41.6802 19.1255 42.4638 18.9267C44.0487 18.5524 45.6569 18.3009 47.2651 18.0963C50.4757 17.6927 53.6629 17.4705 56.7858 17.3477C57.1132 17.3419 57.7448 17.3068 58.2478 17.1606C58.7741 17.0144 59.3063 16.7746 59.78 16.412C60.008 16.2366 60.2654 15.991 60.47 15.7161C60.6747 15.4412 60.8326 15.1313 60.9496 14.8213C61.1777 14.1898 61.2069 13.5582 61.1367 12.9909C61.0665 12.4119 60.8853 11.8739 60.6279 11.371C60.5636 11.2423 60.4934 11.1195 60.4174 11.0084C60.3648 10.9207 60.3706 10.9441 60.3706 10.9382L60.3589 10.9207C60.3589 10.9207 60.3297 10.8739 60.3121 10.8564C60.2478 10.7862 60.1776 10.7686 60.1367 10.7511C60.1192 10.7452 60.1016 10.7394 60.0899 10.7335C60.0782 10.7335 60.0607 10.6926 60.1425 10.6926C60.2478 10.6926 60.3414 10.7043 60.4057 10.7102L60.5578 10.7277H60.587L60.6806 10.6985C60.739 10.6868 60.8092 10.6634 60.8794 10.64C61.0139 10.599 61.166 10.5406 61.3239 10.4645C61.394 10.4353 61.511 10.371 61.5987 10.3242C61.6806 10.2832 61.7976 10.2072 61.9087 10.1137C61.9671 10.0669 62.0139 10.0318 62.0724 9.9733C62.1367 9.90897 62.2069 9.83879 62.2712 9.76862C62.3824 9.63996 62.5227 9.42943 62.628 9.19551C62.7332 8.98497 62.7859 8.69257 62.8034 8.42356V8.23642L62.7917 8.10192C62.78 7.92647 62.7566 7.75688 62.7332 7.58144C62.5812 6.89137 62.2303 6.21299 61.7917 5.76854C61.5812 5.52877 61.3531 5.35917 61.125 5.17788C60.9086 5.03753 60.6747 4.86793 60.4583 4.76852C59.5811 4.30067 58.7682 4.07844 57.9846 3.89131C56.4173 3.54627 54.9553 3.4527 53.5225 3.40007C52.0956 3.35328 50.7038 3.38837 49.3587 3.441H49.2651C49.5049 2.99655 49.5692 2.6866 49.6102 2.43514C49.6511 1.90881 49.6043 1.68658 49.4347 1.26552C49.3879 1.16611 49.3002 1.00236 49.1599 0.838614C49.0254 0.686564 48.8792 0.592994 48.733 0.481881C48.5926 0.370768 48.4113 0.323984 48.2534 0.236263C48.0897 0.177782 47.9084 0.142693 47.7329 0.0959086C47.0487 -0.0502931 46.3236 -0.038597 45.499 0.195326C44.6744 0.429249 43.7738 0.873702 42.879 1.45266C42.4404 1.78015 41.996 2.07256 41.5925 2.41759C41.3293 2.63397 41.1188 2.82111 40.8907 3.03164C39.9959 3.84452 39.1948 4.66325 38.4404 5.48198C37.6918 6.30071 36.9842 7.11359 36.3175 7.89139C36.1596 8.07268 36.0076 8.24227 35.8497 8.42356C35.8029 8.35923 35.7561 8.28905 35.7093 8.21888C35.6157 8.09022 35.5573 7.96741 35.2824 7.8329C34.9841 7.73349 34.6333 7.73349 34.3701 7.82121C34.1069 7.90308 33.8613 8.05513 33.604 8.21303C33.1011 8.56391 32.6391 9.17211 32.2239 9.71598C31.7385 10.3593 31.5806 10.6341 31.3291 11.026C29.4577 13.9909 28.1302 16.6518 27.1126 18.8565C26.9489 19.2191 26.7852 19.5758 26.639 19.9209C26.6565 19.7922 26.674 19.6811 26.6799 19.6226C26.3349 19.5875 25.8027 19.5349 25.0951 19.4647C24.3816 19.453 23.4927 19.4121 22.4517 19.5057C20.3698 19.6577 17.6563 20.2951 14.8726 21.8332C12.0831 23.3478 9.34621 25.7865 7.04207 28.8801C4.73793 31.9737 2.84901 35.7107 1.58582 39.816C0.954232 41.8687 0.492235 44.0208 0.229071 46.2313C0.0887178 47.3366 0.0302372 48.4536 0.000996832 49.594C-0.0106993 50.746 0.0828698 51.8396 0.158895 52.9332C0.462994 57.331 1.22324 61.7755 2.69696 65.9101C4.15897 70.0388 6.31106 73.8459 8.96609 76.9103C11.6036 79.9864 14.6563 82.3022 17.5686 83.9572C19.7324 85.1736 22.0073 86.1561 24.3114 86.928C26.6273 87.6532 28.9665 88.2614 31.3116 88.5947C33.6508 88.9515 35.9783 89.1737 38.2708 89.1971C40.5632 89.2497 42.8206 89.1562 45.0136 88.9164C47.2125 88.6825 49.3587 88.3433 51.4289 87.8462C51.9494 87.7058 52.4582 87.5713 52.9728 87.4368C53.4816 87.2906 53.9904 87.1152 54.4875 86.9573C55.4992 86.5713 56.4583 86.2321 57.47 85.5771C58.394 84.9748 59.1835 84.3023 59.9145 83.4718C60.6338 82.6531 61.2069 81.6706 61.5344 80.618C61.8443 79.5478 61.9379 78.5185 61.7859 77.4308C61.628 76.3606 61.1952 75.3898 60.6455 74.5886C59.5402 72.9687 58.0606 71.9161 56.6162 71.1558C56.5694 71.1266 56.5226 71.1149 56.4758 71.0915C56.9612 71.0739 57.4466 71.0505 57.9378 71.0213C59.277 70.8926 60.6338 70.6763 61.9788 70.378C63.3122 70.0564 64.628 69.6529 65.8853 69.1675C67.1427 68.6704 68.3415 68.109 69.4644 67.4949C70.5814 66.8633 71.634 66.2142 72.5755 65.5066C73.1954 65.0621 73.7627 64.5943 74.289 64.1381C75.1195 64.0387 75.9557 64.1323 76.7218 64.372C77.8973 64.7463 78.8739 65.4422 79.4821 66.3662C80.1254 67.2902 80.4646 68.454 80.5114 69.6119C80.5523 70.7815 80.295 71.8927 79.757 72.9512C79.2248 73.998 78.4529 74.9512 77.5756 75.729C76.7043 76.5126 75.716 77.115 74.7218 77.5945C72.7276 78.5595 70.7919 78.9922 69.4936 79.4016C71.6808 80.0273 74.0317 80.1443 76.2598 79.5946C77.371 79.3139 78.4529 78.8694 79.4236 78.2671C80.3944 77.6647 81.2541 76.9103 81.9734 76.0565C82.6869 75.191 83.2541 74.226 83.6284 73.1909C84.0144 72.1734 84.1723 71.0681 84.1547 70.0505C84.1079 67.9978 83.3594 66.1323 82.2015 64.8223C81.6284 64.1674 80.9675 63.641 80.2775 63.2726C79.5874 62.91 78.8973 62.6995 78.254 62.5942C77.6107 62.489 77.0025 62.5007 76.4645 62.5591C76.2306 62.5884 76.0201 62.6293 75.8154 62.6761C75.9206 62.5708 76.0317 62.4597 76.137 62.3486C76.447 62.0036 76.7394 61.6761 77.0084 61.3661C77.1136 61.2375 77.2072 61.1147 77.3066 60.9919C77.4236 61.1673 77.5815 61.3486 77.7862 61.5416C78.1371 61.8808 78.6283 62.22 79.2365 62.4831C79.8388 62.7463 80.5406 62.9393 81.2833 63.0504C82.0377 63.1556 82.7804 63.1966 83.6342 63.1615C84.4822 63.1147 85.3653 62.9627 86.2249 62.6703C86.6577 62.5182 87.0846 62.3369 87.494 62.1205C87.6986 62.0153 87.8975 61.8866 88.0963 61.7638L88.4764 61.5006C88.6343 61.3837 88.7688 61.2492 88.915 61.1205C89.5174 60.6234 89.9034 60.0503 90.266 59.5181C90.4414 59.2433 90.6168 58.9743 90.7923 58.7053L91.0437 58.3017L91.2309 57.9801C90.7279 57.9099 90.2192 57.8339 89.7279 57.7696C89.4765 57.7345 89.2308 57.6994 88.9852 57.6643C88.7455 57.6234 88.5466 57.5649 88.3361 57.5181C88.1314 57.4713 87.9267 57.4187 87.7162 57.3719L87.4706 57.2842C87.2951 57.2316 87.1606 57.1672 87.0144 57.097C86.8624 57.0386 86.7396 56.9508 86.6109 56.8865C86.4939 56.8046 86.3653 56.7286 86.26 56.6467C86.1606 56.559 86.0436 56.483 85.9559 56.3894C85.8624 56.3017 85.7688 56.214 85.6986 56.1263C85.5349 55.945 85.412 55.7695 85.3009 55.5999C85.2892 55.5824 85.2834 55.559 85.2658 55.5415C86.0612 55.2841 86.9384 54.904 87.8507 54.3777C88.2542 54.1379 88.6694 53.8806 89.073 53.5824C89.4765 53.2783 89.8917 52.9508 90.2893 52.5648C90.6929 52.1788 91.0671 51.7519 91.4005 51.3075C91.7455 50.863 92.0496 50.3776 92.3362 49.8805C92.9034 48.8747 93.3303 47.7811 93.6052 46.6465C93.6695 46.36 93.7339 46.0734 93.7806 45.7869C93.8099 45.6816 93.8333 45.4068 93.8684 45.1904C93.8976 44.9623 93.9327 44.7459 93.9385 44.5003C93.9736 44.0149 93.9912 43.5529 93.9853 43.1026C93.9853 42.6699 94.0146 42.1552 93.9795 41.7868L94.0146 41.7985L93.9502 41.8277ZM35.3935 10.3066C35.3409 10.5055 35.3643 10.4002 35.3935 10.3066V10.3066ZM35.4344 10.4353V10.4704C35.452 10.6985 35.4403 10.599 35.4344 10.4353ZM44.9434 70.4599C44.9434 70.4599 44.9902 70.4131 45.0136 70.3897C45.1422 70.2318 45.2417 70.0856 45.3118 69.9511C45.4171 69.7523 45.458 69.5885 45.423 69.454C45.5224 69.4949 45.6101 69.5242 45.7095 69.5651C46.0662 69.6938 46.4522 69.8108 46.844 69.9394C46.1657 70.0856 45.5282 70.2669 44.9493 70.4716H44.9376V70.4657L44.9434 70.4599Z" fill="#1E1E1C"/>
<path d="M103.219 64.5301C102.178 64.5301 101.442 64.2377 101.015 63.6529C100.588 63.0681 100.33 62.3254 100.249 61.4306C100.167 60.5359 100.132 59.6236 100.132 58.7113C100.132 57.3311 99.9387 56.2142 99.5469 55.372C99.155 54.5299 98.465 54.103 97.4766 54.103C96.5936 54.103 95.9444 54.5299 95.5234 55.372C95.1023 56.22 94.8976 57.3311 94.8976 58.7113C94.8976 59.6236 94.8626 60.5242 94.7982 61.4072C94.7339 62.2903 94.4941 63.0272 94.0731 63.6178C93.652 64.2026 92.8976 64.495 91.8099 64.495C90.997 64.495 90.3303 64.1968 89.7981 63.6003C89.2659 63.0038 88.8566 62.2201 88.57 61.2552C88.2835 60.2903 88.0788 59.2493 87.9677 58.1265C87.8507 57.0037 87.7922 55.9218 87.7922 54.8867C87.7922 53.8515 87.8449 52.7755 87.9501 51.6761C88.0554 50.5766 88.2425 49.5649 88.5174 48.6292C88.7923 47.6935 89.1899 46.9333 89.7046 46.366C90.225 45.7929 90.8976 45.5063 91.7397 45.5063C93.2251 45.5063 94.1491 46.1847 94.5175 47.5415C94.8275 47.2023 95.3362 46.8865 96.0263 46.5824C96.7164 46.2841 97.5059 46.1321 98.3889 46.1321C100.395 46.1321 102.038 46.6409 103.313 47.6526C104.588 48.6702 105.518 50.0678 106.108 51.8574C106.693 53.6469 106.974 55.7112 106.951 58.0563C106.951 59.2493 106.839 60.3429 106.617 61.3195C106.401 62.2962 106.021 63.0798 105.483 63.6646C104.95 64.2494 104.202 64.5418 103.237 64.5418H103.225L103.219 64.5301Z" fill="#1E1E1C"/>
<path d="M117.916 64.5299C115.962 64.5299 114.249 64.1439 112.775 63.372C111.301 62.6 110.155 61.5474 109.336 60.2023C108.512 58.8631 108.108 57.3192 108.108 55.5707C108.108 53.8221 108.518 52.3133 109.336 50.8805C110.161 49.4477 111.29 48.3015 112.74 47.4418C114.19 46.5763 115.851 46.1553 117.723 46.1553C119.471 46.1553 120.962 46.5062 122.22 47.2138C123.471 47.9155 124.425 48.8103 125.097 49.8922C125.764 50.9741 126.091 52.1086 126.091 53.3133C126.091 54.518 125.816 55.5005 125.267 56.2607C124.723 57.0327 124.009 57.6175 123.132 58.021C122.261 58.4245 121.325 58.6935 120.337 58.8222C119.348 58.9508 118.395 58.9742 117.483 58.8807C116.571 58.7871 115.804 58.6409 115.179 58.4304C115.652 59.1848 116.243 59.6994 116.957 59.9743C117.67 60.2491 118.43 60.3661 119.22 60.3251C120.015 60.2842 120.734 60.1965 121.389 60.0737C122.202 59.8924 122.863 59.9275 123.384 60.1906C123.904 60.448 124.179 60.869 124.208 61.4421C124.237 61.9158 124.068 62.3778 123.717 62.8515C123.366 63.3252 122.734 63.717 121.822 64.0387C120.91 64.3603 119.612 64.5299 117.916 64.5299ZM115.296 53.6642C115.553 54.0853 115.933 54.3777 116.43 54.5414C116.921 54.7168 117.424 54.7695 117.939 54.7168C118.454 54.6642 118.875 54.5239 119.226 54.2841C119.576 54.0502 119.752 53.7285 119.752 53.3075C119.752 52.863 119.576 52.4653 119.226 52.1203C118.875 51.7753 118.325 51.594 117.565 51.594C116.804 51.594 116.278 51.8221 115.886 52.2782C115.495 52.7344 115.302 53.1963 115.302 53.6642H115.296Z" fill="#1E1E1C"/>
<path d="M131.91 64.4541C130.161 64.4541 128.957 63.3781 128.278 61.2318C127.6 59.0797 127.261 55.6118 127.261 50.8164C127.261 48.1321 127.354 45.7695 127.536 43.7227C127.717 41.6759 128.138 40.0735 128.805 38.9156C129.471 37.7577 130.506 37.1729 131.916 37.1729C132.933 37.1729 133.711 37.4711 134.243 38.0676C134.776 38.6641 135.156 39.5179 135.378 40.6115C135.594 41.7051 135.723 43.0092 135.752 44.518C135.781 46.0327 135.793 47.6994 135.793 49.5181L135.91 49.4363C137.214 48.5532 138.472 47.7871 139.705 47.1497C140.928 46.5122 142.051 46.1906 143.068 46.1906C143.822 46.1906 144.454 46.366 144.963 46.7169C145.472 47.0678 145.852 47.5122 146.121 48.0444C146.378 48.5766 146.513 49.1205 146.513 49.6643C146.513 50.6527 146.162 51.5533 145.454 52.3603C144.746 53.1673 143.84 53.9861 142.717 54.8223C143.027 55.2141 143.337 55.6411 143.635 56.0914C143.934 56.5475 144.255 57.0504 144.594 57.6002C145.039 58.2785 145.407 58.9803 145.688 59.7113C145.975 60.4423 146.121 61.109 146.121 61.7055C146.121 62.4073 145.945 62.9628 145.612 63.3664C145.279 63.7699 144.858 64.0564 144.361 64.226C143.863 64.4015 143.372 64.4658 142.875 64.4366C142.121 64.3839 141.36 64.0155 140.612 63.343C139.857 62.6646 139.126 61.8693 138.419 60.957C138.109 60.5651 137.799 60.1558 137.501 59.7289C137.202 59.2961 136.922 58.8809 136.659 58.4598C136.267 58.6177 135.887 58.7464 135.524 58.8516C135.343 60.7757 134.986 62.1909 134.448 63.0915C133.916 63.9863 133.074 64.4424 131.922 64.4424H131.928V64.4483L131.91 64.4541Z" fill="#1E1E1C"/>
<path d="M161.185 64.5709C159.261 64.6001 157.571 64.1966 156.127 63.3837C154.677 62.5591 153.548 61.4421 152.723 60.0211C151.899 58.6 151.466 57.0327 151.413 55.3134C151.384 53.5414 151.793 51.9741 152.624 50.6057C153.454 49.2372 154.618 48.1495 156.103 47.3424C157.589 46.5354 159.285 46.1319 161.185 46.1319C163.057 46.1027 164.724 46.4945 166.168 47.3074C167.618 48.1202 168.765 49.208 169.63 50.5881C170.496 51.9683 170.946 53.5414 170.999 55.3192C171.028 57.0152 170.618 58.559 169.788 59.9509C168.952 61.3486 167.794 62.4539 166.308 63.2726C164.823 64.0972 163.115 64.5299 161.185 64.5826V64.5767V64.5709ZM161.302 58.8631C162.004 58.8631 162.618 58.5883 163.145 58.0386C163.665 57.4947 163.928 56.8573 163.928 56.1262C163.928 55.3952 163.671 54.7636 163.145 54.2315C162.618 53.6993 162.01 53.4303 161.302 53.4303C160.595 53.4303 159.987 53.6934 159.46 54.2315C158.934 54.7636 158.677 55.4011 158.677 56.1262C158.677 56.8514 158.934 57.4947 159.46 58.0386C159.981 58.5824 160.595 58.8631 161.302 58.8631Z" fill="#1E1E1C"/>
<path d="M95.7573 79.3315C95.0263 79.3315 94.535 79.08 94.2894 78.5771C94.0438 78.0741 93.9268 77.3607 93.9268 76.4484C93.9268 75.6881 93.9034 75.0507 93.8567 74.5477C93.8099 74.0448 93.5993 73.7933 93.2134 73.7933C92.8917 73.7933 92.6695 73.9044 92.535 74.1384C92.4005 74.3664 92.3303 74.6822 92.3186 75.0741C92.3069 75.4717 92.2952 75.9279 92.2952 76.4484C92.2952 76.9688 92.2601 77.4659 92.19 77.9045C92.1198 78.3373 91.9619 78.6823 91.7104 78.9338C91.4589 79.1853 91.0613 79.3139 90.5057 79.3139C89.9501 79.3139 89.5408 79.1268 89.2133 78.7408C88.8858 78.3548 88.6402 77.8519 88.4706 77.232C88.301 76.6004 88.1899 75.9279 88.1255 75.191C88.0612 74.46 88.032 73.7349 88.032 73.0389C88.032 71.7524 88.1431 70.688 88.377 69.8459C88.6051 68.9979 89.0963 68.4716 89.8449 68.2552C90.3069 68.1149 90.7396 68.109 91.149 68.2318C91.5642 68.3488 91.8332 68.5827 91.9736 68.916C92.1256 68.84 92.3069 68.764 92.5233 68.6763C92.7397 68.5944 93.073 68.5476 93.5292 68.5476C93.9853 68.5476 94.4356 68.6587 94.8801 68.8927C95.3187 69.1207 95.6403 69.4599 95.845 69.8985C96.2076 69.4716 96.5994 69.1383 97.0146 68.8927C97.424 68.647 97.9912 68.5359 98.7047 68.5476C99.6696 68.5593 100.494 68.8576 101.178 69.4307C101.863 70.0038 102.395 70.764 102.769 71.7231C103.149 72.6822 103.331 73.7349 103.331 74.8986C103.331 75.6472 103.266 76.3606 103.138 77.039C103.003 77.7174 102.775 78.2671 102.424 78.6999C102.079 79.1268 101.594 79.3432 100.968 79.3432C100.418 79.3432 100.015 79.2087 99.7632 78.9513C99.5117 78.694 99.348 78.3431 99.2837 77.9104C99.2135 77.4776 99.1784 76.9864 99.1784 76.4542C99.1784 75.922 99.1726 75.4776 99.155 75.0799C99.1433 74.6822 99.0731 74.3665 98.9503 74.1442C98.8217 73.9161 98.5994 73.7992 98.2661 73.7992C98.0205 73.7992 97.8509 73.9103 97.7632 74.1442C97.6696 74.3723 97.6228 74.6881 97.617 75.0799C97.6111 75.4776 97.5936 75.9337 97.5819 76.4542C97.5702 77.3724 97.4357 78.08 97.1842 78.5829C96.9327 79.0858 96.4591 79.3373 95.7514 79.3373H95.7456L95.7573 79.3315Z" fill="#1E1E1C"/>
<path d="M108.149 79.3317C107.401 79.3317 106.716 79.2206 106.102 78.9867C105.488 78.7586 104.991 78.4077 104.629 77.9457C104.266 77.4837 104.079 76.893 104.079 76.1679C104.079 75.5597 104.26 75.0334 104.629 74.6064C104.991 74.1795 105.488 73.852 106.102 73.6181C106.716 73.39 107.401 73.2731 108.149 73.2731C108.588 73.2731 108.997 73.3082 109.366 73.3784C109.728 73.4485 109.98 73.5246 110.12 73.6181C110.12 73.2672 109.974 72.9631 109.687 72.6883C109.395 72.4251 108.892 72.2906 108.179 72.2906C107.845 72.2906 107.576 72.3199 107.389 72.3666C107.202 72.4251 107.026 72.4836 106.874 72.5596C106.722 72.6356 106.553 72.7 106.36 72.7526C106.173 72.8111 105.915 72.8286 105.594 72.8286C105.12 72.8286 104.74 72.7 104.459 72.4485C104.178 72.197 104.032 71.8111 104.032 71.2906C104.032 70.8169 104.167 70.4075 104.43 70.0683C104.693 69.7233 105.044 69.4368 105.471 69.2087C105.898 68.9806 106.36 68.811 106.857 68.7057C107.354 68.6005 107.828 68.5479 108.29 68.5479C109.646 68.5479 110.758 68.7993 111.611 69.2964C112.465 69.7935 113.103 70.4368 113.512 71.2321C113.927 72.0275 114.132 72.8871 114.132 73.817C114.132 74.3316 114.091 74.817 114.003 75.2556C113.921 75.6942 113.81 76.0451 113.67 76.2848C113.886 76.4661 114.05 76.6825 114.161 76.9281C114.272 77.1738 114.337 77.4252 114.337 77.6825C114.337 78.1094 114.196 78.4837 113.91 78.8171C113.629 79.1445 113.225 79.3083 112.705 79.3083C112.307 79.3083 111.991 79.244 111.769 79.127C111.547 79.0101 111.307 78.8463 111.085 78.6475C110.722 78.8638 110.319 79.0276 109.869 79.1387C109.43 79.2498 108.857 79.3141 108.149 79.3141V79.3258H108.155L108.149 79.3317ZM108.611 77.0159C108.962 77.0159 109.225 76.9457 109.401 76.7995C109.576 76.6533 109.664 76.4895 109.664 76.3024C109.664 76.1153 109.57 75.9515 109.401 75.8111C109.225 75.6649 108.962 75.5948 108.611 75.5948C108.26 75.5948 108.015 75.6649 107.833 75.8111C107.652 75.9574 107.559 76.1211 107.559 76.3024C107.559 76.4837 107.652 76.6533 107.833 76.7995C108.015 76.9457 108.272 77.0159 108.611 77.0159Z" fill="#1E1E1C"/>
<path d="M119.419 79.3317C118.079 79.3317 117.009 79.1095 116.208 78.665C115.413 78.2264 115.021 77.6533 115.021 76.9457C115.021 76.4545 115.179 76.0919 115.512 75.8579C115.845 75.624 116.231 75.5012 116.693 75.5012C117.056 75.5012 117.331 75.5656 117.506 75.6825C117.682 75.8112 117.84 75.9281 117.974 76.0451C118.114 76.1737 118.284 76.2264 118.477 76.2264C118.799 76.2264 118.957 76.1153 118.957 75.8813C118.957 75.5714 118.775 75.355 118.418 75.2147C118.062 75.0743 117.617 74.8872 117.079 74.6415C116.348 74.2907 115.822 73.8813 115.5 73.4193C115.179 72.9515 115.021 72.4778 115.021 71.9865C115.021 71.4076 115.225 70.852 115.635 70.3374C116.05 69.8227 116.635 69.3958 117.389 69.0566C118.144 68.7233 119.05 68.5537 120.103 68.5537C120.992 68.5537 121.781 68.6707 122.489 68.9163C123.196 69.1619 123.746 69.4953 124.161 69.9163C124.577 70.3374 124.775 70.7994 124.775 71.3023C124.775 71.776 124.623 72.1327 124.313 72.3783C124.003 72.624 123.612 72.7409 123.126 72.7409C122.851 72.7409 122.635 72.7 122.477 72.6123C122.319 72.5304 122.167 72.4544 122.044 72.3725C121.91 72.2965 121.734 72.2614 121.506 72.2614C121.389 72.2614 121.278 72.3023 121.185 72.39C121.091 72.4719 121.044 72.5772 121.044 72.7C121.044 72.7936 121.079 72.8813 121.155 72.9749C121.231 73.0684 121.36 73.1444 121.547 73.2029C122.021 73.355 122.483 73.5538 122.933 73.7877C123.378 74.0275 123.758 74.3316 124.056 74.7059C124.354 75.086 124.5 75.5597 124.5 76.1387C124.5 77.1328 124.033 77.9048 123.103 78.472C122.173 79.0393 120.945 79.32 119.413 79.32H119.424V79.3259L119.419 79.3317Z" fill="#1E1E1C"/>
<path d="M129.857 79.3317C128.518 79.3317 127.448 79.1095 126.647 78.665C125.852 78.2264 125.46 77.6533 125.46 76.9457C125.46 76.4545 125.618 76.0919 125.951 75.8579C126.284 75.624 126.67 75.5012 127.132 75.5012C127.495 75.5012 127.77 75.5656 127.945 75.6825C128.121 75.8112 128.278 75.9281 128.413 76.0451C128.553 76.1737 128.723 76.2264 128.916 76.2264C129.238 76.2264 129.395 76.1153 129.395 75.8813C129.395 75.5714 129.214 75.355 128.857 75.2147C128.501 75.0743 128.056 74.8872 127.518 74.6415C126.787 74.2907 126.261 73.8813 125.939 73.4193C125.618 72.9515 125.46 72.4778 125.46 71.9865C125.46 71.4076 125.664 70.852 126.074 70.3374C126.489 69.8227 127.074 69.3958 127.828 69.0566C128.583 68.7233 129.489 68.5537 130.542 68.5537C131.431 68.5537 132.22 68.6707 132.928 68.9163C133.635 69.1619 134.185 69.4953 134.6 69.9163C135.015 70.3374 135.214 70.7994 135.214 71.3023C135.214 71.776 135.062 72.1327 134.752 72.3783C134.442 72.624 134.051 72.7409 133.565 72.7409C133.29 72.7409 133.074 72.7 132.916 72.6123C132.758 72.5304 132.606 72.4544 132.483 72.3725C132.349 72.2965 132.173 72.2614 131.945 72.2614C131.828 72.2614 131.717 72.3023 131.624 72.39C131.53 72.4719 131.483 72.5772 131.483 72.7C131.483 72.7936 131.518 72.8813 131.594 72.9749C131.67 73.0684 131.799 73.1444 131.986 73.2029C132.46 73.355 132.922 73.5538 133.372 73.7877C133.817 74.0275 134.197 74.3316 134.495 74.7059C134.793 75.086 134.939 75.5597 134.939 76.1387C134.939 77.1328 134.472 77.9048 133.542 78.472C132.612 79.0393 131.384 79.32 129.852 79.32H129.863L129.857 79.3317Z" fill="#1E1E1C"/>
<path d="M140.027 79.3317C139.279 79.3317 138.594 79.2206 137.98 78.9867C137.366 78.7586 136.869 78.4077 136.507 77.9457C136.144 77.4837 135.957 76.893 135.957 76.1679C135.957 75.5597 136.138 75.0334 136.507 74.6064C136.869 74.1795 137.366 73.852 137.98 73.6181C138.594 73.39 139.279 73.2731 140.027 73.2731C140.466 73.2731 140.875 73.3082 141.244 73.3784C141.606 73.4485 141.858 73.5246 141.998 73.6181C141.998 73.2672 141.852 72.9631 141.565 72.6883C141.273 72.4251 140.77 72.2906 140.056 72.2906C139.723 72.2906 139.454 72.3199 139.267 72.3666C139.08 72.4251 138.904 72.4836 138.752 72.5596C138.6 72.6356 138.431 72.7 138.238 72.7526C138.051 72.8111 137.793 72.8286 137.472 72.8286C136.998 72.8286 136.618 72.7 136.337 72.4485C136.056 72.197 135.91 71.8111 135.91 71.2906C135.91 70.8169 136.045 70.4075 136.308 70.0683C136.571 69.7233 136.922 69.4368 137.349 69.2087C137.776 68.9806 138.238 68.811 138.735 68.7057C139.232 68.6005 139.706 68.5479 140.168 68.5479C141.524 68.5479 142.635 68.7993 143.489 69.2964C144.343 69.7935 144.981 70.4368 145.39 71.2321C145.805 72.0275 146.01 72.8871 146.01 73.817C146.01 74.3316 145.969 74.817 145.881 75.2556C145.799 75.6942 145.688 76.0451 145.548 76.2848C145.764 76.4661 145.928 76.6825 146.039 76.9281C146.15 77.1738 146.214 77.4252 146.214 77.6825C146.214 78.1094 146.074 78.4837 145.788 78.8171C145.507 79.1445 145.103 79.3083 144.583 79.3083C144.185 79.3083 143.869 79.244 143.647 79.127C143.425 79.0101 143.185 78.8463 142.963 78.6475C142.6 78.8638 142.197 79.0276 141.747 79.1387C141.308 79.2498 140.735 79.3141 140.027 79.3141V79.3258H140.033L140.027 79.3317ZM140.489 77.0159C140.84 77.0159 141.103 76.9457 141.279 76.7995C141.454 76.6533 141.542 76.4895 141.542 76.3024C141.542 76.1153 141.448 75.9515 141.279 75.8111C141.103 75.6649 140.84 75.5948 140.489 75.5948C140.138 75.5948 139.893 75.6649 139.711 75.8111C139.53 75.9574 139.437 76.1211 139.437 76.3024C139.437 76.4837 139.53 76.6533 139.711 76.7995C139.893 76.9457 140.15 77.0159 140.489 77.0159Z" fill="#1E1E1C"/>
<path d="M151.893 83.2439C151.039 83.2439 150.32 83.086 149.741 82.7527C149.162 82.4252 148.869 81.9749 148.869 81.4135C148.869 80.852 149.121 80.3842 149.624 80.0626C150.127 79.7409 150.735 79.6415 151.454 79.7643C152.291 79.8813 153.045 79.8345 153.712 79.6181C154.378 79.3959 154.764 79.0684 154.893 78.6239C154.647 78.7643 154.314 78.8754 153.887 78.969C153.46 79.0625 152.981 79.1093 152.448 79.1093C151.408 79.1093 150.536 78.9573 149.829 78.6415C149.115 78.3257 148.548 77.9222 148.121 77.4251C147.694 76.928 147.39 76.4075 147.191 75.8461C147.004 75.2847 146.905 74.7759 146.905 74.3022C146.905 73.0507 147.179 71.9981 147.717 71.1443C148.261 70.2904 148.946 69.6413 149.793 69.1969C150.641 68.7524 151.501 68.5302 152.378 68.5302C152.671 68.5302 153.016 68.5536 153.419 68.5887C153.823 68.6237 154.174 68.6881 154.46 68.7641C154.577 68.384 154.782 68.074 155.068 67.8284C155.355 67.5828 155.799 67.4658 156.431 67.4658C156.981 67.4658 157.437 67.653 157.805 68.0272C158.168 68.4074 158.46 68.9103 158.677 69.536C158.893 70.1735 159.039 70.8694 159.139 71.6413C159.232 72.4074 159.273 73.2086 159.267 74.0274C159.262 74.8461 159.221 75.6122 159.139 76.3256C158.987 77.7467 158.595 78.9748 157.969 80.0158C157.337 81.0567 156.513 81.8521 155.484 82.4193C154.454 82.9866 153.261 83.2673 151.899 83.2673H151.893V83.2439ZM152.741 75.659C153.215 75.659 153.63 75.4835 153.981 75.1326C154.332 74.7818 154.507 74.3782 154.507 73.9162C154.507 73.4542 154.332 73.0273 153.981 72.6764C153.63 72.3256 153.22 72.1501 152.741 72.1501C152.261 72.1501 151.858 72.3256 151.519 72.6764C151.174 73.0273 151.004 73.4367 151.004 73.9162C151.004 74.3958 151.179 74.7818 151.519 75.1326C151.864 75.4835 152.273 75.659 152.741 75.659Z" fill="#1E1E1C"/>
<path d="M165.905 79.3317C164.759 79.3317 163.753 79.1095 162.893 78.6534C162.033 78.2089 161.355 77.5832 160.881 76.7995C160.408 76.0159 160.162 75.1094 160.162 74.086C160.162 73.0626 160.402 72.1795 160.881 71.3374C161.361 70.4953 162.028 69.8286 162.876 69.3257C163.724 68.8228 164.7 68.5713 165.8 68.5713C166.817 68.5713 167.7 68.776 168.437 69.1853C169.168 69.6005 169.73 70.121 170.121 70.7585C170.513 71.3959 170.706 72.0567 170.706 72.7644C170.706 73.472 170.548 74.0451 170.227 74.4895C169.905 74.934 169.496 75.2849 168.975 75.5188C168.466 75.7586 167.923 75.9106 167.338 75.9866C166.759 76.0627 166.197 76.0802 165.665 76.0217C165.133 75.9632 164.677 75.8814 164.314 75.7586C164.589 76.1972 164.934 76.5071 165.355 76.6592C165.776 76.8171 166.215 76.8872 166.683 76.8638C167.151 76.8405 167.572 76.7937 167.958 76.7176C168.431 76.6124 168.817 76.6358 169.127 76.7878C169.437 76.9399 169.595 77.1855 169.607 77.5188C169.618 77.7937 169.531 78.0685 169.32 78.3434C169.11 78.6183 168.747 78.8522 168.209 79.0452C167.671 79.2382 166.911 79.3317 165.917 79.3317H165.911H165.905ZM164.367 72.9632C164.519 73.2088 164.747 73.3843 165.034 73.4778C165.326 73.5772 165.618 73.6123 165.917 73.5831C166.215 73.5538 166.466 73.472 166.671 73.3316C166.876 73.1913 166.981 73.0041 166.981 72.7585C166.981 72.5012 166.876 72.2673 166.671 72.0567C166.466 71.8462 166.139 71.7468 165.7 71.7468C165.262 71.7468 164.946 71.8813 164.712 72.1445C164.484 72.4076 164.367 72.6825 164.367 72.9573V72.9632Z" fill="#1E1E1C"/>
<path d="M162.168 43.2607C162.209 43.4771 162.32 43.7227 162.484 43.9449C162.373 44.1905 162.285 44.4186 162.215 44.6467C161.876 44.4946 161.542 44.3484 161.256 44.2607C160.905 44.1613 160.607 44.1438 160.449 44.3426C160.291 44.5356 160.402 44.8221 160.694 45.1028C160.981 45.3777 161.437 45.6409 161.934 45.8163C161.881 46.1555 161.87 46.4245 161.864 46.5999V46.8865C162.063 46.5766 162.273 46.2725 162.495 45.9625C162.823 46.0268 163.139 46.0561 163.402 46.0444C163.805 46.0268 164.08 45.9216 164.104 45.7871C164.127 45.6467 163.917 45.4888 163.601 45.3134C163.466 45.2374 163.314 45.1613 163.156 45.0853C163.25 44.9625 163.343 44.8397 163.443 44.7227C163.642 44.8163 163.84 44.8748 164.016 44.8923C164.367 44.9333 164.612 44.8455 164.648 44.7169C164.688 44.5824 164.554 44.4128 164.367 44.2198C164.291 44.1379 164.203 44.0502 164.115 43.9625L164.408 43.6584C164.519 43.5473 164.624 43.442 164.718 43.366C164.905 43.1964 165.074 43.1496 165.051 43.173C165.057 43.173 165.033 43.173 165.08 43.1905C165.127 43.2139 165.203 43.2666 165.303 43.3484C165.507 43.5297 165.724 43.7402 165.911 43.9449C166.689 44.7871 167.256 45.7578 167.636 46.6643C168.028 47.5707 168.215 48.4129 168.39 48.9977C168.724 48.0444 168.811 47.0035 168.659 46.0327C168.513 45.0561 168.151 44.1379 167.642 43.366C167.39 42.9741 167.104 42.6233 166.788 42.3133C166.63 42.1613 166.484 42.0092 166.262 41.8513C166.045 41.6993 165.782 41.5355 165.414 41.4595C165.063 41.3835 164.677 41.4478 164.396 41.5706C164.115 41.6934 163.911 41.8572 163.747 42.0092C163.583 42.1671 163.455 42.325 163.343 42.4712C163.25 42.5999 163.162 42.7227 163.08 42.8455C162.887 42.6642 162.683 42.5238 162.443 42.5823C162.197 42.635 162.098 42.8981 162.168 43.2549V43.2607Z" fill="#1E1E1C"/>
<path d="M157.016 47.4068C156.127 46.4535 154.951 45.5822 153.601 44.933C152.887 44.588 152.133 44.3073 151.361 44.0968C151.296 43.8395 151.238 43.588 151.185 43.3775C151.098 43.0558 150.992 42.8043 150.776 42.7634C150.565 42.7225 150.384 42.9564 150.308 43.3599C150.279 43.5061 150.273 43.6699 150.279 43.8453H150.267L150.057 43.8044C149.963 43.7868 149.858 43.7751 149.758 43.7576L149.168 43.6699L148.875 43.6289H148.811C148.717 43.512 148.624 43.4125 148.536 43.319C148.25 43.0207 147.998 42.8336 147.799 42.9272C147.6 43.0149 147.606 43.3424 147.782 43.7693C147.91 44.0909 148.15 44.4593 148.448 44.8044C148.437 44.857 148.419 44.9038 148.413 44.9564C148.045 46.7518 148.46 48.3893 149.115 49.5647C149.729 50.6758 150.548 51.3484 151.156 51.6642C151.08 51.6408 151.004 51.6174 150.916 51.594C150.823 51.5706 150.729 51.5355 150.636 51.5004C150.443 51.4302 150.238 51.3542 150.039 51.2723C149.84 51.1846 149.647 51.0911 149.46 51.0033C149.273 50.9098 149.098 50.822 148.946 50.746C148.636 50.5998 148.372 50.5063 148.197 50.6408C148.027 50.7753 148.092 51.0735 148.361 51.401C148.425 51.4829 148.507 51.5589 148.6 51.6408C148.688 51.7226 148.793 51.7928 148.905 51.8689C149.127 52.0092 149.378 52.132 149.641 52.2197C149.905 52.3075 150.179 52.3542 150.437 52.3718C150.565 52.3718 150.688 52.3835 150.805 52.3718C150.922 52.3659 151.033 52.3542 151.133 52.3308C151.536 52.249 151.77 52.0911 151.758 51.9683C151.747 51.8513 151.542 51.7811 151.256 51.6934C150.91 51.2431 150.63 50.7694 150.408 50.2899C150.179 49.7986 150.004 49.2957 149.893 48.7986C149.776 48.3015 149.712 47.8103 149.688 47.3307C149.671 46.8512 149.7 46.3892 149.758 45.9448C149.758 45.9214 149.77 45.8921 149.77 45.8687C149.887 45.9331 149.998 45.9857 150.109 46.0325C150.524 46.2079 150.84 46.243 150.899 46.1377C150.963 46.0325 150.782 45.7986 150.501 45.5003C150.484 45.4828 150.46 45.4594 150.443 45.4418C150.478 45.4477 150.519 45.4535 150.554 45.4652C150.665 45.4886 150.776 45.512 150.881 45.5354C151.022 45.7225 151.162 45.8804 151.308 45.9974C151.612 46.2547 151.875 46.3366 151.963 46.2547C152.039 46.1845 151.992 46.0091 151.91 45.7752C152.238 45.857 152.56 45.9448 152.864 46.0383C153.215 46.1436 153.548 46.2489 153.858 46.3541C154.168 46.4594 154.466 46.5705 154.741 46.6699C155.016 46.7752 155.273 46.8746 155.507 46.974C155.741 47.0676 155.957 47.1612 156.15 47.2489C156.367 47.3424 156.548 47.4243 156.712 47.5003C156.84 47.5881 157.267 47.6349 157.01 47.4126L157.016 47.4068Z" fill="#1E1E1C"/>
</svg>
