<svg width="33" height="33" viewBox="0 0 33 33" fill="none" xmlns="http://www.w3.org/2000/svg">
<path d="M22.7132 6.21338C20.4582 6.21338 18.282 6.95046 16.5 8.30282C14.7178 6.95053 12.5417 6.21338 10.2867 6.21338C4.61464 6.21338 0 10.828 0 16.5C0 22.1721 4.61464 26.7867 10.2868 26.7867C12.5418 26.7867 14.718 26.0497 16.5 24.6973C18.282 26.0497 20.4582 26.7867 22.7132 26.7867C28.3854 26.7867 33 22.1721 33 16.5C33 10.8279 28.3854 6.21338 22.7132 6.21338ZM16.5 10.9188C16.8189 11.2742 17.1075 11.6567 17.3616 12.0602H15.6384C15.8925 11.6567 16.1811 11.2742 16.5 10.9188ZM14.4153 15.5333C14.4755 15.0099 14.5849 14.4955 14.7429 13.9938H18.2571C18.4151 14.4955 18.5244 15.0097 18.5847 15.5333H14.4153ZM18.5847 17.4668C18.5244 17.9903 18.4151 18.5046 18.2571 19.0062H14.7429C14.585 18.5045 14.4756 17.9902 14.4153 17.4668H18.5847ZM10.2868 24.8531C5.68082 24.8531 1.93359 21.106 1.93359 16.5C1.93359 11.8941 5.68082 8.1469 10.2868 8.1469C12.001 8.1469 13.6591 8.67149 15.051 9.63931C14.2535 10.531 13.6102 11.5607 13.1658 12.6663C12.6753 13.8867 12.4265 15.1765 12.4265 16.5C12.4265 17.8236 12.6753 19.1133 13.1658 20.3336C13.6103 21.4394 14.2536 22.4691 15.051 23.3608C13.6591 24.3286 12.001 24.8531 10.2868 24.8531ZM16.5 22.0814C16.1811 21.726 15.8924 21.3435 15.6384 20.9398H17.3616C17.1075 21.3435 16.8189 21.726 16.5 22.0814ZM22.7132 24.8531C20.9989 24.8531 19.3408 24.3285 17.949 23.3608C18.746 22.4694 19.3892 21.44 19.8337 20.3346C19.8338 20.3343 19.834 20.334 19.8341 20.3337C20.3247 19.1136 20.5734 17.8238 20.5734 16.5C20.5734 15.1765 20.3249 13.8869 19.8344 12.6671C19.8343 12.6668 19.8343 12.6665 19.8342 12.6663C19.3897 11.5607 18.7463 10.531 17.949 9.63931C19.3409 8.67142 20.9989 8.1469 22.7132 8.1469C27.3192 8.1469 31.0664 11.8941 31.0664 16.5C31.0664 21.106 27.3192 24.8531 22.7132 24.8531Z" fill="#1E1E1C"/>
</svg>
