<svg width="27" height="27" viewBox="0 0 27 27" fill="none" xmlns="http://www.w3.org/2000/svg">
<path d="M13.6689 16.3252L17.5449 20.2021C18.006 20.6642 18.5539 21.0303 19.1572 21.2793C19.2431 21.3148 19.3304 21.3465 19.418 21.377L15.7031 25.0928C15.1209 25.6736 14.3322 25.9999 13.5098 26C12.7384 26 11.9963 25.7131 11.4268 25.1982L11.3154 25.0928L7.68457 21.4619C7.84875 21.4132 8.01109 21.3577 8.16992 21.292C8.77324 21.0422 9.32149 20.6756 9.78223 20.2129L9.78125 20.2119L13.6689 16.3252Z" stroke="#1E1E1C" stroke-width="2"/>
<path d="M13.501 1C13.9082 1.00001 14.3113 1.08049 14.6875 1.23633C15.0638 1.39222 15.4064 1.62017 15.6943 1.9082V1.90918L19.4082 5.62305C19.3231 5.65296 19.2388 5.68608 19.1553 5.7207C18.5526 5.97039 18.005 6.33636 17.5449 6.79883L13.6699 10.6729L9.78223 6.78516H9.7832C9.32248 6.32237 8.77427 5.95583 8.1709 5.70605C8.01152 5.64008 7.84933 5.58201 7.68457 5.5332L11.3076 1.9082C11.5956 1.62019 11.9382 1.39222 12.3145 1.23633C12.6907 1.08051 13.0938 1 13.501 1Z" stroke="#1E1E1C" stroke-width="2"/>
<mask id="path-3-inside-1_432_106" fill="white">
<path d="M25.7983 10.5995L22.6905 7.49171C22.6205 7.52036 22.5456 7.53546 22.4698 7.5362H21.0567C20.3213 7.53804 19.6164 7.83009 19.0952 8.34886L15.0456 12.3959C14.6809 12.76 14.1866 12.9644 13.6713 12.9644C13.156 12.9644 12.6618 12.76 12.2971 12.3959L8.23205 8.33346C7.71098 7.81438 7.00604 7.52201 6.27055 7.51994H4.53573C4.46424 7.51833 4.39358 7.50414 4.32701 7.47803L1.19955 10.5995C0.431404 11.3693 0 12.4124 0 13.4999C0 14.5873 0.431404 15.6304 1.19955 16.4002L4.32016 19.5208C4.3866 19.4942 4.45734 19.48 4.52889 19.4789H6.27055C7.00602 19.4767 7.71093 19.1844 8.23205 18.6654L12.2962 14.6012C13.031 13.8673 14.3116 13.8673 15.0456 14.6012L19.0952 18.65C19.6164 19.1688 20.3213 19.4608 21.0567 19.4627H22.4698C22.5456 19.4632 22.6205 19.4783 22.6905 19.5071L25.7983 16.3993C26.1793 16.0185 26.4815 15.5664 26.6877 15.0687C26.8939 14.5711 27 14.0377 27 13.499C27 12.9603 26.8939 12.4269 26.6877 11.9293C26.4815 11.4316 26.1793 10.9795 25.7983 10.5987"/>
</mask>
<path d="M22.6905 7.49171L24.1048 6.0775L23.1646 5.13735L21.9339 5.64038L22.6905 7.49171ZM22.4698 7.5362V9.5362H22.4796L22.4894 9.5361L22.4698 7.5362ZM21.0567 7.5362V5.53619L21.0517 5.5362L21.0567 7.5362ZM19.0952 8.34886L17.6843 6.93133L17.6814 6.9342L19.0952 8.34886ZM15.0456 12.3959L16.4585 13.8114L16.4593 13.8106L15.0456 12.3959ZM12.2971 12.3959L10.8833 13.8106L10.8841 13.8114L12.2971 12.3959ZM8.23205 8.33346L9.64582 6.9188L9.64356 6.91655L8.23205 8.33346ZM6.27055 7.51994L6.27617 5.51994H6.27055V7.51994ZM4.53573 7.51994L4.49071 9.51944L4.51322 9.51994H4.53573V7.51994ZM4.32701 7.47803L5.05742 5.61618L3.83986 5.13852L2.91415 6.06246L4.32701 7.47803ZM1.19955 10.5995L-0.21331 9.18394L-0.216167 9.1868L1.19955 10.5995ZM0 13.4999H-2H0ZM1.19955 16.4002L-0.216168 17.8129L-0.214664 17.8144L1.19955 16.4002ZM4.32016 19.5208L2.90595 20.935L3.83883 21.8679L5.0636 21.3775L4.32016 19.5208ZM4.52889 19.4789V17.4789H4.51338L4.49787 17.4792L4.52889 19.4789ZM6.27055 19.4789V21.4789L6.27642 21.4789L6.27055 19.4789ZM8.23205 18.6654L9.64338 20.0825L9.64627 20.0796L8.23205 18.6654ZM12.2962 14.6012L10.8828 13.1862L10.882 13.187L12.2962 14.6012ZM15.0456 14.6012L13.6313 16.0154L13.6315 16.0156L15.0456 14.6012ZM19.0952 18.65L17.6811 20.0644L17.6843 20.0675L19.0952 18.65ZM21.0567 19.4627L21.0517 21.4627H21.0567V19.4627ZM22.4698 19.4627L22.4838 17.4627H22.4698V19.4627ZM22.6905 19.5071L21.9287 21.3564L23.1618 21.8643L24.1048 20.9213L22.6905 19.5071ZM25.7983 16.3993L24.3844 14.9849L24.3841 14.9851L25.7983 16.3993ZM27.2125 9.18529L24.1048 6.0775L21.2763 8.90592L24.3841 12.0137L27.2125 9.18529ZM21.9339 5.64038C22.0979 5.57334 22.2731 5.53802 22.4503 5.53629L22.4894 9.5361C22.818 9.53289 23.143 9.46738 23.4472 9.34305L21.9339 5.64038ZM22.4698 5.5362H21.0567V9.5362H22.4698V5.5362ZM21.0517 5.5362C19.7892 5.53936 18.5791 6.04074 17.6843 6.93133L20.5061 9.76639C20.6537 9.61944 20.8534 9.53671 21.0617 9.53619L21.0517 5.5362ZM17.6814 6.9342L13.6318 10.9813L16.4593 13.8106L20.5089 9.76352L17.6814 6.9342ZM13.6326 10.9804C13.6429 10.9702 13.6568 10.9644 13.6713 10.9644V14.9644C14.7164 14.9644 15.7188 14.5497 16.4585 13.8114L13.6326 10.9804ZM13.6713 10.9644C13.6858 10.9644 13.6997 10.9702 13.71 10.9804L10.8841 13.8114C11.6238 14.5497 12.6262 14.9644 13.6713 14.9644V10.9644ZM13.7108 10.9813L9.64582 6.9188L6.81828 9.74812L10.8833 13.8106L13.7108 10.9813ZM9.64356 6.91655C8.74902 6.02542 7.53883 5.5235 6.27617 5.51995L6.26493 9.51994C6.47326 9.52052 6.67294 9.60334 6.82054 9.75037L9.64356 6.91655ZM6.27055 5.51994H4.53573V9.51994H6.27055V5.51994ZM4.58075 5.52045C4.74403 5.52413 4.90538 5.55653 5.05742 5.61618L3.59659 9.33988C3.88178 9.45176 4.18444 9.51254 4.49071 9.51944L4.58075 5.52045ZM2.91415 6.06246L-0.213308 9.18394L2.61241 12.0151L5.73987 8.89359L2.91415 6.06246ZM-0.216167 9.1868C-1.35847 10.3315 -2 11.8827 -2 13.4999H2C2 12.9421 2.22128 12.407 2.61527 12.0122L-0.216167 9.1868ZM-2 13.4999C-2 15.117 -1.35847 16.6682 -0.216167 17.8129L2.61527 14.9875C2.22128 14.5927 2 14.0576 2 13.4999H-2ZM-0.214664 17.8144L2.90595 20.935L5.73438 18.1066L2.61377 14.986L-0.214664 17.8144ZM5.0636 21.3775C4.90327 21.4417 4.73256 21.476 4.55991 21.4787L4.49787 17.4792C4.18212 17.484 3.86992 17.5467 3.57673 17.6641L5.0636 21.3775ZM4.52889 21.4789H6.27055V17.4789H4.52889V21.4789ZM6.27642 21.4789C7.53889 21.4752 8.74887 20.9734 9.64338 20.0825L6.82072 17.2483C6.67299 17.3954 6.47316 17.4783 6.26467 17.4789L6.27642 21.4789ZM9.64627 20.0796L13.7104 16.0154L10.882 13.187L6.81783 17.2512L9.64627 20.0796ZM13.7096 16.0163C13.6864 16.0394 13.6666 16.0488 13.6603 16.0513C13.6556 16.0531 13.66 16.0508 13.6712 16.0508C13.6824 16.0508 13.6866 16.0531 13.6816 16.0512C13.6751 16.0486 13.6549 16.039 13.6313 16.0154L16.4598 13.187C14.9443 11.6715 12.398 11.6727 10.8828 13.1862L13.7096 16.0163ZM13.6315 16.0156L17.6811 20.0644L20.5092 17.2356L16.4596 13.1869L13.6315 16.0156ZM17.6843 20.0675C18.5791 20.9581 19.7892 21.4595 21.0517 21.4627L21.0617 17.4627C20.8534 17.4621 20.6537 17.3794 20.5061 17.2325L17.6843 20.0675ZM21.0567 21.4627H22.4698V17.4627H21.0567V21.4627ZM22.4559 21.4626C22.275 21.4613 22.096 21.4253 21.9287 21.3564L23.4524 17.6579C23.145 17.5313 22.8162 17.465 22.4838 17.4627L22.4559 21.4626ZM24.1048 20.9213L27.2125 17.8136L24.3841 14.9851L21.2763 18.0929L24.1048 20.9213ZM27.2123 17.8138C27.779 17.2473 28.2286 16.5746 28.5354 15.8343L24.84 14.3032C24.7344 14.5581 24.5795 14.7898 24.3844 14.9849L27.2123 17.8138ZM28.5354 15.8343C28.8421 15.0939 29 14.3004 29 13.499H25C25 13.775 24.9456 14.0482 24.84 14.3032L28.5354 15.8343ZM29 13.499C29 12.6976 28.8421 11.9041 28.5354 11.1637L24.84 12.6948C24.9456 12.9498 25 13.223 25 13.499H29ZM28.5354 11.1637C28.2286 10.4234 27.779 9.75073 27.2123 9.18418L24.3844 12.0131C24.5795 12.2082 24.7344 12.4399 24.84 12.6948L28.5354 11.1637Z" fill="#1E1E1C" mask="url(#path-3-inside-1_432_106)"/>
</svg>
