<svg width="33" height="33" viewBox="0 0 33 33" fill="none" xmlns="http://www.w3.org/2000/svg">
<g clip-path="url(#clip0_432_105)">
<path d="M29.9969 4.96289H2.87421C1.25382 4.96289 -0.0644531 6.28116 -0.0644531 7.90155C-0.0644531 8.6274 -0.0644531 23.5506 -0.0644531 25.1548C-0.0644531 26.7752 1.25382 28.0935 2.87421 28.0935H29.9969C31.6173 28.0935 32.9356 26.7752 32.9356 25.1548C32.9356 24.576 32.9356 8.97459 32.9356 7.90155C32.9356 6.28116 31.6173 4.96289 29.9969 4.96289ZM30.9765 25.1548C30.9765 25.6949 30.5369 26.1342 29.9969 26.1342H2.87421C2.33416 26.1342 1.89457 25.6949 1.89457 25.1548V24.5075C3.17155 24.5075 29.6948 24.5075 30.9765 24.5075V25.1548ZM30.9765 22.5485C29.69 22.5485 3.16576 22.5485 1.89457 22.5485V10.5079H30.9765V22.5485ZM30.9765 8.54885H1.89457V7.90155C1.89457 7.36125 2.33416 6.92191 2.87421 6.92191H29.9969C30.5369 6.92191 30.9765 7.36125 30.9765 7.90155V8.54885Z" fill="#1E1E1C"/>
<path d="M10.7981 12.739C10.326 12.4749 9.72908 12.6439 9.46497 13.1159L7.36093 16.8804L6.51952 13.3659C6.41428 12.9251 6.02026 12.6144 5.56707 12.6144H3.96254C3.42174 12.6144 2.98315 13.053 2.98315 13.594C2.98315 14.1348 3.42174 14.5734 3.96254 14.5734H4.79414L6.03939 19.7758C6.1333 20.168 6.45834 20.4628 6.85789 20.518C7.25368 20.5731 7.64845 20.3808 7.8471 20.0255L11.175 14.0719C11.4391 13.5996 11.2702 13.0029 10.7981 12.739Z" fill="#1E1E1C"/>
<path d="M16.3524 20.5271H20.0187C22.0447 20.5271 23.1971 18.2267 22.012 16.6038C21.5422 15.9603 20.8156 15.5912 20.0187 15.5912H18.391C18.0461 15.5912 17.8009 15.2566 17.9064 14.9273C17.9738 14.7155 18.1687 14.5733 18.391 14.5733H22.0573C22.5981 14.5733 23.0367 14.1347 23.0367 13.5939C23.0367 13.0528 22.5981 12.6143 22.0573 12.6143H18.391C17.3129 12.6143 16.3683 13.3041 16.0402 14.3308C15.5307 15.9248 16.7175 17.5502 18.391 17.5502H20.0187C20.3636 17.5502 20.6089 17.8846 20.5036 18.2141C20.4359 18.4259 20.241 18.5679 20.0187 18.5679H16.3524C15.8116 18.5679 15.373 19.0064 15.373 19.5475C15.373 20.0886 15.8116 20.5271 16.3524 20.5271Z" fill="#1E1E1C"/>
<path d="M23.6774 20.3171C24.1495 20.5812 24.7465 20.4123 25.0103 19.9399L25.5043 19.0565H27.8042L27.9558 19.6902C28.0814 20.2154 28.6094 20.5409 29.1366 20.4148C29.6628 20.2889 29.9871 19.7602 29.8612 19.234L28.4362 13.2804C28.229 12.415 27.0628 12.2531 26.6284 13.0304C23.5113 18.6063 27.7264 11.0653 23.3003 18.9842C23.0362 19.4563 23.2051 20.0532 23.6774 20.3171ZM27.1146 16.1757L27.3352 17.0972H26.5992L27.1146 16.1757Z" fill="#1E1E1C"/>
<path d="M12.5843 20.5275C13.0571 20.5275 13.4733 20.1841 13.5504 19.7022L14.5018 13.7486C14.5871 13.2144 14.2233 12.7121 13.6891 12.6267C13.1551 12.5411 12.6525 12.9052 12.5672 13.4394L11.6158 19.393C11.5206 19.9895 11.9818 20.5275 12.5843 20.5275Z" fill="#1E1E1C"/>
</g>
<defs>
<clipPath id="clip0_432_105">
<rect width="33" height="33" fill="white"/>
</clipPath>
</defs>
</svg>
